<svg xmlns="http://www.w3.org/2000/svg" xmlns:xlink="http://www.w3.org/1999/xlink" width="43" height="43" viewBox="0 0 43 43">
  <defs>
    <linearGradient id="linear-gradient" x1="0.5" x2="0.5" y2="1" gradientUnits="objectBoundingBox">
      <stop offset="0" stop-color="#ffbb1e"/>
      <stop offset="1" stop-color="#ff9158"/>
    </linearGradient>
  </defs>
  <g id="グループ_51" data-name="グループ 51" transform="translate(-1625 -31)">
    <circle id="楕円形_2" data-name="楕円形 2" cx="21.5" cy="21.5" r="21.5" transform="translate(1625 31)" fill="#fff"/>
    <g id="Tel." transform="translate(1386.508 -40.749)" style="isolation: isolate">
      <g id="グループ_22" data-name="グループ 22" style="isolation: isolate">
        <path id="パス_12" data-name="パス 12" d="M257.093,87.749v1.325h-3.569v10.4h-1.462v-10.4h-3.57V87.749Z" fill="url(#linear-gradient)"/>
        <path id="パス_13" data-name="パス 13" d="M263.452,98.186a2.988,2.988,0,0,1-2.975,1.427c-2.278,0-3.638-1.478-3.638-3.842V94.65c0-2.414,1.139-3.807,3.366-3.807,2.244,0,3.365,1.377,3.365,3.807v.884H258.2v.237c0,1.462.7,2.619,2.176,2.619a2.014,2.014,0,0,0,2.022-.952ZM258.2,94.344h3.994c-.068-1.428-.7-2.278-1.988-2.278C258.9,92.066,258.284,92.934,258.2,94.344Z" fill="url(#linear-gradient)"/>
        <path id="パス_14" data-name="パス 14" d="M265.56,87.749h1.36V96.52c0,.918.051,1.7,1.445,1.7v1.258c-2.142,0-2.8-.85-2.8-2.619Z" fill="url(#linear-gradient)"/>
        <path id="パス_15" data-name="パス 15" d="M272.1,99.478h-1.971V97.506H272.1Z" fill="url(#linear-gradient)"/>
      </g>
    </g>
  </g>
</svg>
