<svg xmlns="http://www.w3.org/2000/svg" xmlns:xlink="http://www.w3.org/1999/xlink" width="44" height="44" viewBox="0 0 44 44">
  <defs>
    <linearGradient id="linear-gradient" x1="0.5" x2="0.5" y2="1" gradientUnits="objectBoundingBox">
      <stop offset="0" stop-color="#43cfe8"/>
      <stop offset="1" stop-color="#00a8be"/>
    </linearGradient>
  </defs>
  <path id="パス_16" data-name="パス 16" d="M412.945,454.376a22,22,0,1,0,22,22A22,22,0,0,0,412.945,454.376Zm9.736,16.668c-.237.25-.534.442-.781.683a.581.581,0,0,0-.182.376,12.442,12.442,0,0,1-1.079,5.476,12.289,12.289,0,0,1-9.379,7.569,12.8,12.8,0,0,1-9.233-1.688c-.032-.019-.061-.042-.092-.062a9.539,9.539,0,0,0,6.579-1.923,4.686,4.686,0,0,1-4.223-3.168h1.9l.029-.09a4.642,4.642,0,0,1-3.528-4.44l1.952.55.049-.093a4.587,4.587,0,0,1-1.936-3.489,4.4,4.4,0,0,1,.605-2.539,13,13,0,0,0,9.32,4.744c-.022-.372-.057-.7-.058-1.037a4.5,4.5,0,0,1,4.058-4.517,4.385,4.385,0,0,1,3.616,1.234.408.408,0,0,0,.432.117,9.112,9.112,0,0,0,2.389-.914c.054-.03.115-.049.23-.1a4.829,4.829,0,0,1-1.745,2.381,7.026,7.026,0,0,0,2.286-.58l.066.07C423.533,470.087,423.121,470.579,422.681,471.044Z" transform="translate(-390.945 -454.376)" fill="url(#linear-gradient)"/>
</svg>
