<svg xmlns="http://www.w3.org/2000/svg" xmlns:xlink="http://www.w3.org/1999/xlink" viewBox="0 0 378.21 184.16"><defs><style>.cls-1{fill:url(#新規グラデーションスウォッチ_1);}.cls-2{fill:#f5a85d;}</style><linearGradient id="新規グラデーションスウォッチ_1" x1="104.86" y1="33.85" x2="203.96" y2="33.85" gradientUnits="userSpaceOnUse"><stop offset="0" stop-color="#f9be3d"/><stop offset="1" stop-color="#f5a85d"/></linearGradient></defs><g id="レイヤー_2" data-name="レイヤー 2"><g id="レイヤー_1-2" data-name="レイヤー 1"><path d="M144.15,103.07H115.63a1,1,0,0,0-1,1v5.77a1,1,0,0,0,1,1h16.25a1,1,0,0,1,1,1.38L113,168.07a1,1,0,0,0,1,1.38h28.88a1,1,0,0,0,1-1v-5.78a1,1,0,0,0-1-1H126.34a1,1,0,0,1-1-1.39l19.77-55.76A1,1,0,0,0,144.15,103.07Z"/><path d="M166.7,120.12c-9.38,0-15,7.3-15,23.81,0,19.3,4.6,26.33,14.79,26.33,8.8,0,13.06-7.09,13.49-14.89a1,1,0,0,0-1-1.07h-5.81a1,1,0,0,0-1,.92c-.33,3.47-1.71,7.65-5.43,7.65-5.45,0-6.09-7.47-6.21-15.73a1,1,0,0,1,1-1h18.3a1,1,0,0,0,1-1v-5.91C180.86,127,175.36,120.12,166.7,120.12Zm4.81,19.3h-10a1,1,0,0,1-1-1c.14-5.44,1.45-10.86,5.94-10.86s5.95,5.42,6.12,10.86A1,1,0,0,1,171.51,139.42Z"/><path d="M207.7,120.25c-5.37.85-8,4.79-9.07,8.67,0,.16-.23.36-.33.18a2.19,2.19,0,0,1-.05-.63V122a1,1,0,0,0-1-1H191a1,1,0,0,0-1,1v46.45a1,1,0,0,0,1,1h6.67a1,1,0,0,0,1-1V141.13c0-9,4.33-11.36,7.66-11.36a7.31,7.31,0,0,1,1.4.12,1,1,0,0,0,1.22-1v-7.59A1.09,1.09,0,0,0,207.7,120.25Z"/><path d="M230.44,120.12c-11.46,0-15.15,11.18-15.15,25.07s3.69,25.07,15.15,25.07,15.15-11.18,15.15-25.07S241.89,120.12,230.44,120.12Zm0,42.75c-4.06,0-5.95-6.77-5.95-20,0-8.84,1.35-15.34,5.95-15.34s5.95,6.5,5.95,15.34C236.39,156.1,234.5,162.87,230.44,162.87Z"/><path d="M264.53,103.07h-8.26a1,1,0,0,0-1,1v64.31a1,1,0,0,0,1,1h7.13a1,1,0,0,0,1-1V145.53c0-1.27,1.53-1.15,1.53-1.15,12.45,0,18.4-8.48,18.4-20.74C284.37,108.67,276.43,103.07,264.53,103.07Zm1.05,33.42a1,1,0,0,1-1.14-1V112a1,1,0,0,1,1.15-1c6.31.5,9.13,5.25,9.13,12.49C274.72,130.31,272.6,136,265.58,136.49Z"/><path d="M307.14,162c-3.91-.1-5.36-2.17-5.36-5.86v-52a1,1,0,0,0-1-1h-6.68a1,1,0,0,0-1,1V158c0,9.11,4.87,12.26,12.08,12.26h2.21a1,1,0,0,0,1-1v-6.14A1.18,1.18,0,0,0,307.14,162Z"/><path d="M341.55,120.93h-6.68a1,1,0,0,0-1,1v36.49a1,1,0,0,1-.28.71c-4.52,4.9-9.37,3.05-9.37-3.16V122a1,1,0,0,0-1-1h-6.68a1,1,0,0,0-1,1v37.56c0,6.31,4.24,10.73,9,10.73,4.33,0,7.48-2,9.65-7.39h.18v5.55a1,1,0,0,0,1,1h6.23a1,1,0,0,0,1-1V122A1,1,0,0,0,341.55,120.93Z"/><path d="M370.72,143.39l-5.5-4.24c-4.51-3.43-5.41-5.14-5.41-7.22a4.19,4.19,0,0,1,4.51-4.42c3.24,0,5.1,2.32,5.68,5.13a1,1,0,0,0,1.54.64l5.36-3.23a1,1,0,0,0,.43-1.29c-2.13-4.92-5.83-8.64-12.92-8.64-7.31,0-12.9,4.87-12.9,12.81,0,5.14,2,8.65,7.94,13.34l4.6,3.61c4.15,3.25,5.41,5.77,5.41,8.12a4.81,4.81,0,0,1-5,4.87c-3.15,0-5.19-2.43-5.78-5.27a1,1,0,0,0-1.56-.62l-5.44,3.43a1,1,0,0,0-.4,1.29c2.72,6.08,6.86,8.56,13,8.56,8.93,0,13.89-6.13,13.89-13.25C378.21,152.23,376.4,147.81,370.72,143.39Z"/><path class="cls-1" d="M139.29,56.5c7.06-6.8,14.71-9.85,23.4-9.35,15.9.27,46.15-16,40.6-34.52C198.15-4.5,179.17-1.09,165.37,4.79c-18,7.4-21,16.83-39.91,28.09-3.09,1.85-6.92,3.57-10.35,5.65-7.85,5.1-13.91,16.34-7.67,23.8C116.3,73.34,131.61,65.4,139.29,56.5Z"/><path class="cls-2" d="M20,108.67l-4,8.21v7.37L25,106A51.53,51.53,0,0,0,20,108.67Z"/><path class="cls-2" d="M29.36,104.24,16,131.45v7.37l17.56-35.76A36.64,36.64,0,0,0,29.36,104.24Z"/><path class="cls-2" d="M37.37,102.5l-21.1,43,4.11-1,20.6-42A21.75,21.75,0,0,0,37.37,102.5Z"/><path class="cls-2" d="M44.23,103.09,24.44,143.4c1.43-.41,2.86-.88,4.32-1.42l18.47-37.63A13.91,13.91,0,0,0,44.23,103.09Z"/><path class="cls-2" d="M51.06,107.65a13.64,13.64,0,0,0-1.25-1.37L33.25,140a51.22,51.22,0,0,0,5-2.85l13.78-28.08A15.45,15.45,0,0,0,51.06,107.65Z"/><path class="cls-2" d="M53.7,112.93l-10,20.29C50.35,127.69,55.5,120.21,53.7,112.93Z"/><path d="M41,184.16a41,41,0,0,1-41-41V74a41,41,0,1,1,82,0v69.23A41,41,0,0,1,41,184.16ZM41,49A25,25,0,0,0,16,74v69.23a25,25,0,0,0,50,0V74A25,25,0,0,0,41,49Z"/></g></g></svg>