<svg xmlns="http://www.w3.org/2000/svg" width="281.183" height="231.689" viewBox="0 0 281.183 231.689">
  <path id="パス_79" data-name="パス 79" d="M55.773,5.436a24.866,24.866,0,0,1-21.033.118Q24.342.945,19.615-10.4a38.152,38.152,0,0,1-3.781-14.534,110.088,110.088,0,0,1,.591-20.561q1.3-11.935,6.617-29.659t11.226-33.086q5.908-15.361,9.689-21.624t7.326-12.171q3.781-3.545,6.617-3.545h1.418q3.072,1.182,7.09,7.563,9.217-.236,14.771.118t15.361,7.563a46.807,46.807,0,0,1,15.007,18.552,73.624,73.624,0,0,1,1.418,41.357q-5.2,21.506-12.525,32.968T90.75-22.924Q79.643-8.035,69.6-1.772T55.773,5.436ZM67.117-120.291q-5.436,1.891-8.035-1.182Q47.738-101.148,43.012-88.15a276.457,276.457,0,0,0-9.1,32.613q-4.136,18.67-3.545,25.76a105.023,105.023,0,0,0,2.245,14.416Q37.576-.945,52.465-6.854a42.974,42.974,0,0,0,10.4-5.908,54.99,54.99,0,0,0,9.217-8.98Q92.4-46.32,98.9-67.826t5.317-27.887a35.337,35.337,0,0,0-2.836-9.571q-1.891-3.9-7.444-10.044a21.261,21.261,0,0,0-13-7.208A22.423,22.423,0,0,0,67.117-120.291Zm99.494,104.93q2.127,2.6,5.908,8.271t7.563,6.381q4.727.709,13.707-3.072a36.624,36.624,0,0,0,14.416-10.4q5.908-6.145,5.081-16.188t-6.735-15.716q-8.271-8.035-15.125-10.871a47.938,47.938,0,0,1-9.689-4.963,53.086,53.086,0,0,1-7.562-7.208q-2.127-2.718-1.654-9.335,3.072-13.943,5.672-22.924t2.6-13.707a18.179,18.179,0,0,1,2.6-9.217q2.363-3.072,4.845-11.816t4.845-21.033q1.182-2.836,3.072-3.545h.945a11.636,11.636,0,0,1,5.2,1.891,10.252,10.252,0,0,1,5.317,6.5,13.355,13.355,0,0,1-.118,7.681,78.228,78.228,0,0,0-6.145,14.062q-1.418,5.081-4.018,13.353,18.434-3.072,30.959-5.436t19.379-4.254q4.254-1.418,7.8,2.127a27.63,27.63,0,0,1,3.545,5.554,8.368,8.368,0,0,1,.709,5.79q-.709,2.836-6.381,3.781a74.69,74.69,0,0,0-16.779,0q-8.271.945-19.852,3.19t-22.687,5.317a90.473,90.473,0,0,0-3.19,10.635A81.875,81.875,0,0,0,189.3-77.988q-.236,4.49,4.254,7.563a141.9,141.9,0,0,1,14.652,10.162q16.779,13.234,18.552,26.114t-1.891,21.86A37.4,37.4,0,0,1,213.641,2.836a45.685,45.685,0,0,1-17.37,9.335,35.167,35.167,0,0,1-19.97.118Q166.375,9.453,158.576-.236a13.786,13.786,0,0,1-2.009-9.453q.827-4.49,4.372-6.026T166.611-15.361Z" transform="matrix(0.966, -0.259, 0.259, 0.966, 26.54, 222.51)" fill="#ff9158" opacity="0.115"/>
</svg>
