<svg xmlns="http://www.w3.org/2000/svg" width="282.845" height="213.329" viewBox="0 0 282.845 213.329">
  <path id="パス_86" data-name="パス 86" d="M55.773,5.436a24.866,24.866,0,0,1-21.033.118Q24.342.945,19.615-10.4a38.152,38.152,0,0,1-3.781-14.534,110.088,110.088,0,0,1,.591-20.561q1.3-11.935,6.617-29.659t11.226-33.086q5.908-15.361,9.689-21.624t7.326-12.171q3.781-3.545,6.617-3.545h1.418q3.072,1.182,7.09,7.563,9.217-.236,14.771.118t15.361,7.563a46.807,46.807,0,0,1,15.007,18.552,73.624,73.624,0,0,1,1.418,41.357q-5.2,21.506-12.525,32.968T90.75-22.924Q79.643-8.035,69.6-1.772T55.773,5.436ZM67.117-120.291q-5.436,1.891-8.035-1.182Q47.738-101.148,43.012-88.15a276.457,276.457,0,0,0-9.1,32.613q-4.136,18.67-3.545,25.76a105.023,105.023,0,0,0,2.245,14.416Q37.576-.945,52.465-6.854a42.974,42.974,0,0,0,10.4-5.908,54.99,54.99,0,0,0,9.217-8.98Q92.4-46.32,98.9-67.826t5.317-27.887a35.337,35.337,0,0,0-2.836-9.571q-1.891-3.9-7.444-10.044a21.261,21.261,0,0,0-13-7.208A22.423,22.423,0,0,0,67.117-120.291ZM184.336-19.615a229.484,229.484,0,0,0,23.751-.827q12.88-1.063,30.723-3.309t24.933-3.427q3.781.709,3.545,4.49a9.566,9.566,0,0,1-2.836,6.381,10.111,10.111,0,0,1-5.2,3.072q-13.943,2.6-40.885,5.554T181.854-2.954Q172.283-1.182,162.83.709a10.34,10.34,0,0,1-5.081-.827,16.662,16.662,0,0,1-4.49-2.836,26.58,26.58,0,0,1-3.545-3.781,7.741,7.741,0,0,1-1.536-4.845,9.4,9.4,0,0,1,3.545-4.963,40.949,40.949,0,0,0,14.062-7.444q6.263-5.081,11.226-9.571t21.506-24.224Q215.059-77.516,224.039-92.4t10.4-20.561q1.418-5.672-5.081-9.335t-15.834-3.781a35.231,35.231,0,0,0-18.079,4.845q-8.744,4.963-12.762,15.361-1.654,2.836-3.9,2.363a15.034,15.034,0,0,1-5.436-2.836,12.328,12.328,0,0,1-4.372-5.436q-1.182-3.072.945-7.326t10.162-10.871q8.035-6.617,22.451-10.162A45.417,45.417,0,0,1,214.35-141.8a33.612,33.612,0,0,1,13.234,2.6q10.871,4.254,14.18,8.862a37.5,37.5,0,0,1,5.081,9.808,26.918,26.918,0,0,1,1.063,11.7q-.709,6.5-8.035,19.379T216.24-54.592Q199.934-32.613,184.336-19.615Z" transform="matrix(0.966, -0.259, 0.259, 0.966, 22.626, 209.8)" fill="#ff9158" opacity="0.115"/>
</svg>
