<svg xmlns="http://www.w3.org/2000/svg" width="240.818" height="219.868" viewBox="0 0 240.818 219.868">
  <path id="パス_85" data-name="パス 85" d="M55.773,5.436a24.866,24.866,0,0,1-21.033.118Q24.342.945,19.615-10.4a38.152,38.152,0,0,1-3.781-14.534,110.088,110.088,0,0,1,.591-20.561q1.3-11.935,6.617-29.659t11.226-33.086q5.908-15.361,9.689-21.624t7.326-12.171q3.781-3.545,6.617-3.545h1.418q3.072,1.182,7.09,7.563,9.217-.236,14.771.118t15.361,7.563a46.807,46.807,0,0,1,15.007,18.552,73.624,73.624,0,0,1,1.418,41.357q-5.2,21.506-12.525,32.968T90.75-22.924Q79.643-8.035,69.6-1.772T55.773,5.436ZM67.117-120.291q-5.436,1.891-8.035-1.182Q47.738-101.148,43.012-88.15a276.457,276.457,0,0,0-9.1,32.613q-4.136,18.67-3.545,25.76a105.023,105.023,0,0,0,2.245,14.416Q37.576-.945,52.465-6.854a42.974,42.974,0,0,0,10.4-5.908,54.99,54.99,0,0,0,9.217-8.98Q92.4-46.32,98.9-67.826t5.317-27.887a35.337,35.337,0,0,0-2.836-9.571q-1.891-3.9-7.444-10.044a21.261,21.261,0,0,0-13-7.208A22.423,22.423,0,0,0,67.117-120.291Zm131.871-4.018a33.6,33.6,0,0,0-8.035,5.081q-3.781,3.19-7.562,6.854a25.018,25.018,0,0,1-8.98,5.554,17.279,17.279,0,0,1-3.19.827q-1.063.118-4.254-5.436t-.591-8.626q10.162-7.8,15.125-11.7T207.26-150.3a25.929,25.929,0,0,1,6.972,2.718,7.633,7.633,0,0,1,4.136,6.145,15.129,15.129,0,0,1-1.182,7.917q-7.8,29.541-13.707,49.865t-9.571,35.567q-3.663,15.243-6.735,33.677t-1.418,28.123a13.417,13.417,0,0,1,.354,5.317,4.778,4.778,0,0,1-3.427,3.9q-6.145.236-9.1-1.3a11.427,11.427,0,0,1-4.372-3.663q-1.418-2.127-1.418-8.744,1.182-6.381,5.554-29.541t8.862-40.412q4.49-17.252,8.862-32.377t6.263-22.451Q199.225-122.891,198.988-124.309Z" transform="matrix(0.966, -0.259, 0.259, 0.966, 23.849, 201.728)" fill="#ff9158" opacity="0.115"/>
</svg>
