<svg xmlns="http://www.w3.org/2000/svg" width="294.454" height="242.072" viewBox="0 0 294.454 242.072">
  <path id="パス_88" data-name="パス 88" d="M55.773,5.436a24.866,24.866,0,0,1-21.033.118Q24.342.945,19.615-10.4a38.152,38.152,0,0,1-3.781-14.534,110.088,110.088,0,0,1,.591-20.561q1.3-11.935,6.617-29.659t11.226-33.086q5.908-15.361,9.689-21.624t7.326-12.171q3.781-3.545,6.617-3.545h1.418q3.072,1.182,7.09,7.563,9.217-.236,14.771.118t15.361,7.563a46.807,46.807,0,0,1,15.007,18.552,73.624,73.624,0,0,1,1.418,41.357q-5.2,21.506-12.525,32.968T90.75-22.924Q79.643-8.035,69.6-1.772T55.773,5.436ZM67.117-120.291q-5.436,1.891-8.035-1.182Q47.738-101.148,43.012-88.15a276.457,276.457,0,0,0-9.1,32.613q-4.136,18.67-3.545,25.76a105.023,105.023,0,0,0,2.245,14.416Q37.576-.945,52.465-6.854a42.974,42.974,0,0,0,10.4-5.908,54.99,54.99,0,0,0,9.217-8.98Q92.4-46.32,98.9-67.826t5.317-27.887a35.337,35.337,0,0,0-2.836-9.571q-1.891-3.9-7.444-10.044a21.261,21.261,0,0,0-13-7.208A22.423,22.423,0,0,0,67.117-120.291Zm153.85,85.314Q210.1-34.5,194.38-33.322t-29.423,1.891q-9.689,1.891-13-7.09a10.516,10.516,0,0,1,.236-8.98,88.244,88.244,0,0,0,8.508-9.453q6.145-7.8,14.771-19.261t20.442-27.65q11.816-16.188,20.679-28.478T231.6-152.432a7.118,7.118,0,0,1,4.018-4.727,8.921,8.921,0,0,1,2.836-.473,8.341,8.341,0,0,1,3.309.709,9.583,9.583,0,0,1,4.49,5.317,11.69,11.69,0,0,1,.236,6.972q-20.8,26.469-38.167,49.511t-35.8,48.093a254.28,254.28,0,0,0,27.06-.473q12.88-.945,25.169-1.891,3.072-6.854,6.5-21.151t5.317-22.806q1.891-8.508,2.836-14.18a56.669,56.669,0,0,0,.945-8.271,3.843,3.843,0,0,1,4.018-2.6,10.222,10.222,0,0,1,6.5,1.891,7.136,7.136,0,0,1,3.427,5.672q.473,3.781-1.772,11.816t-6.145,23.278q-3.9,15.243-6.263,24.7,6.145-.236,12.88-1.063T262.206-54a7.46,7.46,0,0,1,4.608-.591q3.072,1.891,3.663,4.254t1.063,4.49a4.141,4.141,0,0,1-.945,3.781,10.149,10.149,0,0,1-3.427,2.6,18.626,18.626,0,0,1-4.608,1.418,49.607,49.607,0,0,0-13.471.827,65.15,65.15,0,0,1-13.471,1.3q-3.781,17.725-6.5,29.187t-3.9,19.143q-1.182,7.681-1.654,10.044a4.421,4.421,0,0,1-4.372,1.891q-2.954-.236-6.026-3.781a13.865,13.865,0,0,1-2.127-10.4q3.781-14.18,6.263-25.523T220.967-34.977Z" transform="matrix(0.966, -0.259, 0.259, 0.966, 25.745, 222.57)" fill="#ff9158" opacity="0.115"/>
</svg>
