<svg xmlns="http://www.w3.org/2000/svg" width="251.603" height="213.413" viewBox="0 0 251.603 213.413">
  <path id="パス_87" data-name="パス 87" d="M55.773,5.436a24.866,24.866,0,0,1-21.033.118Q24.342.945,19.615-10.4a38.152,38.152,0,0,1-3.781-14.534,110.088,110.088,0,0,1,.591-20.561q1.3-11.935,6.617-29.659t11.226-33.086q5.908-15.361,9.689-21.624t7.326-12.171q3.781-3.545,6.617-3.545h1.418q3.072,1.182,7.09,7.563,9.217-.236,14.771.118t15.361,7.563a46.807,46.807,0,0,1,15.007,18.552,73.624,73.624,0,0,1,1.418,41.357q-5.2,21.506-12.525,32.968T90.75-22.924Q79.643-8.035,69.6-1.772T55.773,5.436ZM67.117-120.291q-5.436,1.891-8.035-1.182Q47.738-101.148,43.012-88.15a276.457,276.457,0,0,0-9.1,32.613q-4.136,18.67-3.545,25.76a105.023,105.023,0,0,0,2.245,14.416Q37.576-.945,52.465-6.854a42.974,42.974,0,0,0,10.4-5.908,54.99,54.99,0,0,0,9.217-8.98Q92.4-46.32,98.9-67.826t5.317-27.887a35.337,35.337,0,0,0-2.836-9.571q-1.891-3.9-7.444-10.044a21.261,21.261,0,0,0-13-7.208A22.423,22.423,0,0,0,67.117-120.291Zm118.164-10.871q-2.836.473-5.554,1.063T175-132.226a25.4,25.4,0,0,1-3.19-5.672,6.783,6.783,0,0,1-.473-4.845q.709-2.127,5.2-3.19a104.488,104.488,0,0,1,15.125-1.772,32.427,32.427,0,0,1,4.018-.236,49.093,49.093,0,0,1,16.07,2.6,30.806,30.806,0,0,1,16.9,14.534,30.508,30.508,0,0,1,2.954,21.86q-4.963,14.18-12.407,21.979T208.441-76.807q8.744,3.545,15.125,13.116t5.908,26.705Q229-19.852,212.7-4.727q-16.07,14.889-29.9,17.606t-19.97,1.772a12.881,12.881,0,0,1-7.09-4.49,17.941,17.941,0,0,1-3.309-5.79,11.516,11.516,0,0,1-.236-5.2q.473-2.718,4.018-2.954a43.628,43.628,0,0,0,27.178-1.536A55.4,55.4,0,0,0,205.133-20.8a42.131,42.131,0,0,0,10.4-23.4,24.494,24.494,0,0,0-1.654-10.989q-2.127-5.554-6.263-7.326a12.453,12.453,0,0,0-9.1-.118q-10.4,1.654-23.16,4.49-3.781,1.418-5.79.118a15.205,15.205,0,0,1-3.9-3.9q-3.309-9.689-2.009-12.053t8.862-3.545q13.471-2.363,22.1-8.153a67.308,67.308,0,0,0,14.416-12.762,55.7,55.7,0,0,0,8.744-14.062q2.954-7.09,1.536-12.053-1.418-4.727-12.289-7.681A34.893,34.893,0,0,0,185.281-131.162Z" transform="matrix(0.966, -0.259, 0.259, 0.966, 23.237, 203.058)" fill="#ff9158" opacity="0.115"/>
</svg>
