<svg xmlns="http://www.w3.org/2000/svg" width="260.214" height="222.8" viewBox="0 0 260.214 222.8">
  <path id="パス_79" data-name="パス 79" d="M55.773,5.436a24.866,24.866,0,0,1-21.033.118Q24.342.945,19.615-10.4a38.152,38.152,0,0,1-3.781-14.534,110.088,110.088,0,0,1,.591-20.561q1.3-11.935,6.617-29.659t11.226-33.086q5.908-15.361,9.689-21.624t7.326-12.171q3.781-3.545,6.617-3.545h1.418q3.072,1.182,7.09,7.563,9.217-.236,14.771.118t15.361,7.563a46.807,46.807,0,0,1,15.007,18.552,73.624,73.624,0,0,1,1.418,41.357q-5.2,21.506-12.525,32.968T90.75-22.924Q79.643-8.035,69.6-1.772T55.773,5.436ZM67.117-120.291q-5.436,1.891-8.035-1.182Q47.738-101.148,43.012-88.15a276.457,276.457,0,0,0-9.1,32.613q-4.136,18.67-3.545,25.76a105.023,105.023,0,0,0,2.245,14.416Q37.576-.945,52.465-6.854a42.974,42.974,0,0,0,10.4-5.908,54.99,54.99,0,0,0,9.217-8.98Q92.4-46.32,98.9-67.826t5.317-27.887a35.337,35.337,0,0,0-2.836-9.571q-1.891-3.9-7.444-10.044a21.261,21.261,0,0,0-13-7.208A22.423,22.423,0,0,0,67.117-120.291Zm157.867-26.941q-5.908,10.635-13.943,24.105a358.184,358.184,0,0,0-17.252,33.559q-9.217,20.088-14.652,34.5A84.951,84.951,0,0,1,193.2-58.491q6.972-1.063,12.644-2.245a13.725,13.725,0,0,1,9.217-.118,53.919,53.919,0,0,1,8.744,3.9,26.827,26.827,0,0,1,9.689,7.8,29.832,29.832,0,0,1,4.963,9.689,18.86,18.86,0,0,1,.236,9.808,41.762,41.762,0,0,1-4.018,10.044A95.435,95.435,0,0,1,220.73-2.6,60.192,60.192,0,0,1,200.879,9.926a30.46,30.46,0,0,1-24.224.827Q164.248,6.145,159.521-7.326a52.255,52.255,0,0,1-2.363-24.105,114.171,114.171,0,0,1,4.727-20.679q3.309-10.044,9.453-24.814T183.863-105.4q6.381-13.707,12.762-25.523t11.58-21.979q2.836-4.727,5.436-4.963h.236q2.363,0,5.672,2.363Q222.857-152.9,224.984-147.232ZM211.277-46.32a74.151,74.151,0,0,0-17.843,1.063,120.593,120.593,0,0,0-18.788,5.79,32.084,32.084,0,0,0-2.6,7.917q-.709,3.9-1.3,11.462a24.5,24.5,0,0,0,2.481,13.471q3.545,5.2,11.107,5.2a26.357,26.357,0,0,0,15.007-5.317A114.9,114.9,0,0,0,212.1-17.488a59.029,59.029,0,0,0,9.571-12.053q3.072-6.381,2.6-9.689a6.8,6.8,0,0,0-3.427-5.081Q217.895-46.084,211.277-46.32Z" transform="matrix(0.966, -0.259, 0.259, 0.966, 25.806, 214.405)" fill="#ff9158" opacity="0.115"/>
</svg>
