<svg xmlns="http://www.w3.org/2000/svg" width="39.805" height="36.342" viewBox="0 0 39.805 36.342">
  <path id="パス_79" data-name="パス 79" d="M9.219.9a4.11,4.11,0,0,1-3.477.02,4.743,4.743,0,0,1-2.5-2.637,6.306,6.306,0,0,1-.625-2.4,18.2,18.2,0,0,1,.1-3.4,28.413,28.413,0,0,1,1.094-4.9q.879-2.93,1.855-5.469a25.139,25.139,0,0,1,1.6-3.574q.625-1.035,1.211-2.012a1.749,1.749,0,0,1,1.094-.586H9.8a3.021,3.021,0,0,1,1.172,1.25q1.523-.039,2.441.02a5.543,5.543,0,0,1,2.539,1.25,7.737,7.737,0,0,1,2.48,3.066,12.169,12.169,0,0,1,.234,6.836A18.343,18.343,0,0,1,16.6-6.191Q15.391-4.3,15-3.789a13.76,13.76,0,0,1-3.5,3.5A10.354,10.354,0,0,1,9.219.9Zm1.875-20.781a1.121,1.121,0,0,1-1.328-.2A40.111,40.111,0,0,0,7.109-14.57a45.7,45.7,0,0,0-1.5,5.391A17.1,17.1,0,0,0,5.02-4.922a17.359,17.359,0,0,0,.371,2.383q.82,2.383,3.281,1.406a7.1,7.1,0,0,0,1.719-.977,9.089,9.089,0,0,0,1.523-1.484,22.622,22.622,0,0,0,4.434-7.617q1.074-3.555.879-4.609a5.841,5.841,0,0,0-.469-1.582,7.874,7.874,0,0,0-1.23-1.66,3.514,3.514,0,0,0-2.148-1.191A3.706,3.706,0,0,0,11.094-19.883Zm21.8-.664a5.555,5.555,0,0,0-1.328.84q-.625.527-1.25,1.133a4.135,4.135,0,0,1-1.484.918,2.856,2.856,0,0,1-.527.137q-.176.02-.7-.9t-.1-1.426q1.68-1.289,2.5-1.934t4.258-3.066a4.286,4.286,0,0,1,1.152.449,1.262,1.262,0,0,1,.684,1.016,2.5,2.5,0,0,1-.2,1.309q-1.289,4.883-2.266,8.242T32.051-7.949q-.605,2.52-1.113,5.566A15.015,15.015,0,0,0,30.7,2.266a2.218,2.218,0,0,1,.059.879.79.79,0,0,1-.566.645,3.134,3.134,0,0,1-1.5-.215,1.889,1.889,0,0,1-.723-.605,2.938,2.938,0,0,1-.234-1.445q.2-1.055.918-4.883t1.465-6.68q.742-2.852,1.465-5.352T32.617-19.1A5.826,5.826,0,0,0,32.891-20.547Z" transform="matrix(0.966, -0.259, 0.259, 0.966, 3.942, 33.344)" fill="#ff9158"/>
</svg>
