<svg xmlns="http://www.w3.org/2000/svg" width="55.797" height="50.185" viewBox="0 0 55.797 50.185">
  <g id="グループ_85" data-name="グループ 85" transform="translate(-458.024 -244.849)">
    <path id="パス_62" data-name="パス 62" d="M495.795,298.083l.027-8.769c2.408,0,3.617-1.414,3.617-3.191l.027-11.064c0-5.719-2.474-8.038-7.149-8.332l-3.661,3.094-3.662-3.094c-4.673.295-7.15,2.614-7.15,8.332l.026,11.064c0,1.777,1.254,3.191,3.6,3.191v8.769" transform="translate(-2.751 -3.052)" fill="none" stroke="#fff" stroke-linejoin="round" stroke-width="2"/>
    <path id="パス_63" data-name="パス 63" d="M475.13,274.674c-.791-2.024-2.479-2.935-4.985-3.093l-2.807,2.239-2.808-2.239c-3.6.225-5.505,2.007-5.505,6.409l.021,8.508a2.457,2.457,0,0,0,2.763,2.452v7.823" transform="translate(0 -3.762)" fill="none" stroke="#fff" stroke-linejoin="round" stroke-width="2"/>
    <path id="パス_64" data-name="パス 64" d="M475.188,299.562l.023-7.823a2.707,2.707,0,0,0,2.39-1.077" transform="translate(-2.363 -6.551)" fill="none" stroke="#fff" stroke-linejoin="round" stroke-width="2"/>
    <path id="パス_65" data-name="パス 65" d="M503.005,290.663a2.7,2.7,0,0,0,2.388,1.077l.023,7.823" transform="translate(-6.429 -6.551)" fill="none" stroke="#fff" stroke-linejoin="round" stroke-width="2"/>
    <path id="パス_66" data-name="パス 66" d="M467.961,266.747a4.674,4.674,0,1,0-4.675-4.674A4.672,4.672,0,0,0,467.961,266.747Z" transform="translate(-0.623 -1.688)" fill="none" stroke="#fff" stroke-linejoin="round" stroke-width="2"/>
    <path id="パス_67" data-name="パス 67" d="M516.488,296.773V288.95a2.459,2.459,0,0,0,2.766-2.452l.021-8.508c0-4.4-1.9-6.184-5.506-6.409l-2.806,2.239-2.809-2.239c-2.506.157-4.193,1.068-4.985,3.093" transform="translate(-6.453 -3.762)" fill="none" stroke="#fff" stroke-linejoin="round" stroke-width="2"/>
    <path id="パス_68" data-name="パス 68" d="M511.5,266.747a4.674,4.674,0,1,1,4.674-4.674A4.672,4.672,0,0,1,511.5,266.747Z" transform="translate(-6.987 -1.688)" fill="none" stroke="#fff" stroke-linejoin="round" stroke-width="2"/>
    <path id="パス_69" data-name="パス 69" d="M482.989,252.9a32.66,32.66,0,0,1,5.444-.447,38.25,38.25,0,0,1,5.483.447v-2.835l6.533-1.356-12-2.864-12,2.864,6.533,1.356Z" transform="translate(-2.548)" fill="none" stroke="#fff" stroke-linejoin="round" stroke-width="2"/>
    <path id="パス_70" data-name="パス 70" d="M484.029,254.109a5.946,5.946,0,1,0,10.916,0" transform="translate(-3.584 -1.207)" fill="none" stroke="#fff" stroke-linejoin="round" stroke-width="2"/>
    <line id="線_79" data-name="線 79" y2="4.433" transform="translate(494.49 249.421)" fill="none" stroke="#fff" stroke-linecap="round" stroke-linejoin="round" stroke-width="2"/>
  </g>
</svg>
