<svg xmlns="http://www.w3.org/2000/svg" xmlns:xlink="http://www.w3.org/1999/xlink" width="128" height="123" viewBox="0 0 128 123">
  <defs>
    <clipPath id="clip-path">
      <ellipse id="楕円形_89" data-name="楕円形 89" cx="64" cy="61.5" rx="64" ry="61.5" transform="translate(147 1748)" fill="#fff"/>
    </clipPath>
  </defs>
  <g id="マスクグループ_1" data-name="マスクグループ 1" transform="translate(-147 -1748)" clip-path="url(#clip-path)">
    <g id="handshake_1_" data-name="handshake (1)" transform="translate(161 1764)">
      <path id="パス_79" data-name="パス 79" d="M98.985,29.285,78.426,8.726a6.891,6.891,0,0,0-9.745,0l-4.832,4.831a6.842,6.842,0,0,0-1.606,2.548L39.637,12.058h0A18.863,18.863,0,0,0,17.494,26.813l-1.043,5.172A10.567,10.567,0,0,0,37.168,36.16L37.805,33l10.137.886L74.416,60.356l4.8,4.8a2.492,2.492,0,0,1-3.524,3.524L62.837,55.826A2.292,2.292,0,1,0,59.6,59.068L72.448,71.919a2.492,2.492,0,0,1-3.524,3.524L56.072,62.591a2.292,2.292,0,1,0-3.242,3.242L65.682,78.684a2.492,2.492,0,0,1-3.524,3.524L49.306,69.357A2.292,2.292,0,1,0,46.065,72.6L58.917,85.45a2.492,2.492,0,1,1-3.524,3.524L9.919,43.5l-6.005-6A2.292,2.292,0,0,0,.672,40.739l6.005,6,6.535,6.535-3.6,3.6a6.245,6.245,0,0,0,0,8.832l1.176,1.176a6.2,6.2,0,0,0,3.792,1.8,6.2,6.2,0,0,0,1.8,3.791l1.176,1.176a6.214,6.214,0,0,0,3.791,1.794,6.2,6.2,0,0,0,1.8,3.8l1.176,1.176a6.2,6.2,0,0,0,3.792,1.8,6.2,6.2,0,0,0,1.8,3.792l1.176,1.176a6.253,6.253,0,0,0,8.833,0l3.6-3.6,8.633,8.632a7.068,7.068,0,0,0,12.066-4.707A7.04,7.04,0,0,0,70.98,80.74a7.034,7.034,0,0,0,6.766-6.765,7.064,7.064,0,0,0,4.71-12.063l-3.177-3.177L90.9,47.112l8.083-8.083a6.9,6.9,0,0,0,0-9.745ZM12.851,62.471a1.662,1.662,0,0,1,0-2.348l3.378-3.378,3.524,3.524-3.378,3.378a1.663,1.663,0,0,1-2.349,0Zm6.766,6.766a1.662,1.662,0,0,1,0-2.348L23,63.511l3.524,3.524-3.378,3.378a1.663,1.663,0,0,1-2.349,0ZM26.383,76a1.66,1.66,0,0,1,0-2.348l3.378-3.378L33.285,73.8l-3.378,3.378a1.663,1.663,0,0,1-2.348,0Zm10.29,7.941a1.663,1.663,0,0,1-2.349,0l-1.176-1.176a1.662,1.662,0,0,1,0-2.348l3.378-3.378,3.524,3.524-3.378,3.378Zm39.364-28.45L50.594,30.052a2.289,2.289,0,0,0-1.421-.662l-13.01-1.137c-.068-.006-.135-.009-.2-.009a2.293,2.293,0,0,0-2.245,1.84l-1.043,5.172A5.982,5.982,0,1,1,20.946,32.89l1.043-5.171A14.269,14.269,0,0,1,38.781,16.562l.049.009,22.277,3.988L63.849,23.3,86.039,45.491ZM95.743,35.788,89.281,42.25,67.09,20.06a2.307,2.307,0,0,1,0-3.262l4.832-4.831a2.306,2.306,0,0,1,3.262,0l20.56,20.559a2.307,2.307,0,0,1,0,3.262Z" transform="translate(0 0)" fill="#fff"/>
      <circle id="楕円形_91" data-name="楕円形 91" cx="2.292" cy="2.292" r="2.292" transform="translate(87.902 32.775)" fill="#fff"/>
    </g>
  </g>
</svg>
