<svg xmlns="http://www.w3.org/2000/svg" width="53.964" height="39.669" viewBox="0 0 53.964 39.669">
  <path id="パス_45" data-name="パス 45" d="M121.14,171.594a.924.924,0,0,0-.168-.479,1.056,1.056,0,0,0-.073-.142c-.015-.019-.037-.027-.053-.044a1.2,1.2,0,0,0-.2-.166,1.429,1.429,0,0,0-.661-.247c-.023,0-.042-.013-.066-.013H68.458c-.024,0-.043.012-.066.013a2.332,2.332,0,0,0-.472.119,1.209,1.209,0,0,0-.187.127,1.232,1.232,0,0,0-.2.167c-.015.017-.037.025-.052.044a1.055,1.055,0,0,0-.073.142.924.924,0,0,0-.168.479,1.244,1.244,0,0,0-.032.159v37.169a1.25,1.25,0,0,0,1.25,1.25h51.464a1.25,1.25,0,0,0,1.25-1.25V171.753A1.243,1.243,0,0,0,121.14,171.594ZM116.355,173,94.19,190.709,72.025,173ZM69.708,207.672V174.351l23.7,18.934a1.247,1.247,0,0,0,1.56,0l23.7-18.934v33.321Z" transform="translate(-67.208 -170.503)" fill="#fff"/>
</svg>
