<svg xmlns="http://www.w3.org/2000/svg" width="53.797" height="39.701" viewBox="0 0 53.797 39.701">
  <g id="グループ_81" data-name="グループ 81" transform="translate(-1041 -1339)">
    <g id="グループ_80" data-name="グループ 80" transform="translate(1041 1339)">
      <path id="パス_47" data-name="パス 47" d="M450.912,117.921h-6.682a2.453,2.453,0,0,1-2.45-2.45V101.238a1.786,1.786,0,0,1,1.784-1.784h2.652A1.787,1.787,0,0,1,448,101.238v5.376a1.019,1.019,0,0,0,1.02,1.02h4.451a1.369,1.369,0,0,1,1.5,1.32c0,1.127-1.254,1.184-1.5,1.184h-5.563a2.946,2.946,0,0,1-3.053-3.181,1.02,1.02,0,0,0-2.04,0,4.959,4.959,0,0,0,5.087,5.22h5.569a3.284,3.284,0,0,0,3.544-3.223,3.38,3.38,0,0,0-3.544-3.36H450.04v-4.356a3.829,3.829,0,0,0-3.825-3.824h-2.652a3.828,3.828,0,0,0-3.824,3.824v14.234a4.5,4.5,0,0,0,4.49,4.489h5.663v5.077a1.02,1.02,0,0,0,2.04,0v-6.1A1.019,1.019,0,0,0,450.912,117.921Z" transform="translate(-439.74 -86.356)" fill="#fff"/>
      <path id="パス_48" data-name="パス 48" d="M459.436,122.551a1.019,1.019,0,0,0-1.02,1.02v6.1a1.02,1.02,0,0,0,2.04,0v-6.1A1.02,1.02,0,0,0,459.436,122.551Z" transform="translate(-443.18 -90.986)" fill="#fff"/>
      <path id="パス_49" data-name="パス 49" d="M485.527,122.551a1.02,1.02,0,0,0-1.02,1.02v6.1a1.02,1.02,0,0,0,2.04,0v-6.1A1.019,1.019,0,0,0,485.527,122.551Z" transform="translate(-447.985 -90.986)" fill="#fff"/>
      <path id="パス_50" data-name="パス 50" d="M445,93.2a4.669,4.669,0,1,0-4.668-4.67A4.675,4.675,0,0,0,445,93.2Zm0-7.3a2.629,2.629,0,1,1-2.629,2.629A2.632,2.632,0,0,1,445,85.9Z" transform="translate(-439.849 -83.86)" fill="#fff"/>
      <path id="パス_51" data-name="パス 51" d="M467.281,103.741a1.024,1.024,0,0,0-1.207.79l-2.049,9.8H453.2a1.02,1.02,0,1,0,0,2.04h11.649a1.02,1.02,0,0,0,1-.811l2.219-10.613A1.02,1.02,0,0,0,467.281,103.741Z" transform="translate(-442.032 -87.518)" fill="#fff"/>
      <path id="パス_52" data-name="パス 52" d="M497.959,97.414h-2.653a3.829,3.829,0,0,0-3.825,3.824v4.356H488.05a3.38,3.38,0,0,0-3.543,3.36,3.283,3.283,0,0,0,3.543,3.223h5.569a4.96,4.96,0,0,0,5.087-5.22,1.02,1.02,0,0,0-2.04,0,2.945,2.945,0,0,1-3.048,3.181H488.05c-.251,0-1.5-.057-1.5-1.184a1.368,1.368,0,0,1,1.5-1.32H492.5a1.019,1.019,0,0,0,1.02-1.02v-5.376a1.787,1.787,0,0,1,1.785-1.784h2.653a1.786,1.786,0,0,1,1.784,1.784v14.234a2.453,2.453,0,0,1-2.45,2.45h-6.682a1.019,1.019,0,0,0-1.02,1.02v6.1a1.02,1.02,0,1,0,2.039,0v-5.077h5.663a4.5,4.5,0,0,0,4.489-4.489V101.238A3.828,3.828,0,0,0,497.959,97.414Z" transform="translate(-447.985 -86.356)" fill="#fff"/>
      <path id="パス_53" data-name="パス 53" d="M498.316,93.2a4.669,4.669,0,1,0-4.669-4.67A4.674,4.674,0,0,0,498.316,93.2Zm0-7.3a2.629,2.629,0,1,1-2.629,2.629A2.632,2.632,0,0,1,498.316,85.9Z" transform="translate(-449.669 -83.86)" fill="#fff"/>
      <path id="パス_54" data-name="パス 54" d="M489.648,115.352a1.02,1.02,0,0,0-1.02-1.02H477.807l-2.049-9.8a1.02,1.02,0,0,0-2,.417l2.219,10.613a1.02,1.02,0,0,0,1,.811h11.65A1.02,1.02,0,0,0,489.648,115.352Z" transform="translate(-446.002 -87.518)" fill="#fff"/>
    </g>
  </g>
</svg>
