<svg xmlns="http://www.w3.org/2000/svg" width="53.797" height="44.836" viewBox="0 0 53.797 44.836">
  <g id="グループ_83" data-name="グループ 83" transform="translate(-150.407 -253.656)">
    <path id="パス_55" data-name="パス 55" d="M174.127,298.58H158.68a.875.875,0,0,0-.875.875V311.1a.875.875,0,0,0,.875.875h15.447A.874.874,0,0,0,175,311.1V299.455A.875.875,0,0,0,174.127,298.58Zm-.875,11.646h-13.7v-9.9h13.7Z" transform="translate(-2.22 -13.484)" fill="#fff"/>
    <path id="パス_56" data-name="パス 56" d="M167.984,281.589a4.913,4.913,0,1,0-4.912-4.913A4.918,4.918,0,0,0,167.984,281.589Zm0-8.076a3.163,3.163,0,1,1-3.163,3.163A3.166,3.166,0,0,1,167.984,273.514Z" transform="translate(-3.801 -5.435)" fill="#fff"/>
    <path id="パス_57" data-name="パス 57" d="M169.5,308.939a1.38,1.38,0,1,0-1.38-1.38A1.38,1.38,0,0,0,169.5,308.939Z" transform="translate(-5.316 -15.765)" fill="#fff"/>
    <path id="パス_58" data-name="パス 58" d="M185.061,280.521a.876.876,0,0,0,1.078-.607c.545-1.951,1.535-5.525,1.645-5.924.748-2.007,1.2-2.5,2.27-2.5l4.079,0,2.589,3.305a.9.9,0,0,0,1.377,0l2.589-3.305,4.079,0c1.072,0,1.521.491,2.27,2.5.139.5,1.671,6.017,2.222,7.992a4.056,4.056,0,0,1-.52,3.526,1.656,1.656,0,0,1-1.166.746.875.875,0,0,0,0,1.75,3.3,3.3,0,0,0,2.559-1.438,5.807,5.807,0,0,0,.812-5.054c-.577-2.068-2.232-8.026-2.232-8.026a.641.641,0,0,0-.022-.071c-.746-2.009-1.556-3.673-3.923-3.673l-4.5,0h0a.873.873,0,0,0-.689.336l-2.163,2.762-2.163-2.762a.873.873,0,0,0-.689-.336h0l-4.5,0c-2.366,0-3.177,1.664-3.923,3.673a.709.709,0,0,0-.023.071s-1.077,3.89-1.654,5.956A.876.876,0,0,0,185.061,280.521Z" transform="translate(-10.209 -4.827)" fill="#fff"/>
    <path id="パス_59" data-name="パス 59" d="M200.873,263.481a4.913,4.913,0,1,0-4.913-4.913A4.919,4.919,0,0,0,200.873,263.481Zm0-8.076a3.163,3.163,0,1,1-3.163,3.163A3.167,3.167,0,0,1,200.873,255.406Z" transform="translate(-13.673)" fill="#fff"/>
    <path id="パス_60" data-name="パス 60" d="M203.329,292.118H195.8V281.346a.875.875,0,0,0-.875-.875H179.477a.875.875,0,0,0-.875.875v10.772h-2.357c-.423-1.521-.76-2.738-.76-2.738-.006-.024-.014-.047-.022-.071-.747-2.01-1.557-3.674-3.923-3.674l-4.5,0h0a.875.875,0,0,0-.689.336l-2.163,2.762-2.163-2.762a.874.874,0,0,0-.689-.336h0l-4.5,0c-2.366,0-3.177,1.664-3.923,3.674-.008.023-.016.047-.022.071,0,0-1.654,5.958-2.233,8.025a5.8,5.8,0,0,0,.813,5.054,3.3,3.3,0,0,0,2.559,1.437.875.875,0,1,0,0-1.75,1.653,1.653,0,0,1-1.166-.745,4.052,4.052,0,0,1-.52-3.526c.551-1.974,2.084-7.495,2.222-7.992.749-2.007,1.2-2.5,2.27-2.5l4.079,0,2.588,3.306a.906.906,0,0,0,1.378,0l2.588-3.306,4.079,0c1.072,0,1.521.492,2.27,2.5.138.5,1.671,6.018,2.222,7.992a4.055,4.055,0,0,1-.52,3.527,1.654,1.654,0,0,1-1.166.745.875.875,0,1,0,0,1.75,3.3,3.3,0,0,0,2.559-1.437,5.8,5.8,0,0,0,.812-5.054c-.221-.793-.6-2.157-.985-3.538h26.6a.875.875,0,0,0,0-1.75Zm-22.978,0v-9.9h13.7v9.9Z" transform="translate(0 -8.048)" fill="#fff"/>
    <path id="パス_61" data-name="パス 61" d="M202.388,288.07a1.38,1.38,0,1,0,1.38,1.38A1.38,1.38,0,0,0,202.388,288.07Z" transform="translate(-15.188 -10.329)" fill="#fff"/>
  </g>
</svg>
