<svg xmlns="http://www.w3.org/2000/svg" width="53.797" height="45.859" viewBox="0 0 53.797 45.859">
  <g id="グループ_87" data-name="グループ 87" transform="translate(-163.043 -356.34)">
    <path id="パス_71" data-name="パス 71" d="M216.591,383.186a1.127,1.127,0,0,0-.879-.421H194.847v-1.777a5.516,5.516,0,0,0-5.51-5.51H187.37c-.034,0-.07,0-.1,0h-4.293a1.129,1.129,0,0,0-.949.517l-3.077,4.774-3.078-4.774a1.127,1.127,0,0,0-.948-.517h0l-6.366,0a5.517,5.517,0,0,0-5.51,5.51v14.027a5.013,5.013,0,0,0,5.007,5.007H176.2a4.448,4.448,0,0,0,3.279-1.287,3.707,3.707,0,0,0,1-2.813,4.123,4.123,0,0,0-4.2-3.839h-4.517v-6.713a1.128,1.128,0,0,0-2.257,0v7.842a1.128,1.128,0,0,0,1.128,1.128h5.646a1.9,1.9,0,0,1,1.948,1.693,1.49,1.49,0,0,1-.382,1.146,2.265,2.265,0,0,1-1.644.587H168.05a2.754,2.754,0,0,1-2.751-2.75V380.988a3.257,3.257,0,0,1,3.253-3.253l5.752,0L178,383.458a1.172,1.172,0,0,0,1.9,0l3.692-5.728h3.573c.034,0,.07,0,.106,0h2.072a3.257,3.257,0,0,1,3.253,3.253v1.777h-3.167a1.127,1.127,0,0,0-1.1.886L184.345,401.8H164.171a1.128,1.128,0,0,0,0,2.257h47.368a1.119,1.119,0,0,0,.411-.082,1.04,1.04,0,0,0,.119-.068,1.055,1.055,0,0,0,.222-.15.965.965,0,0,0,.1-.116,1.088,1.088,0,0,0,.138-.2,1.131,1.131,0,0,0,.064-.157,1.148,1.148,0,0,0,.044-.109l4.172-19.039A1.13,1.13,0,0,0,216.591,383.186Zm-5.96,18.617H186.655l3.677-16.781H214.31Z" transform="translate(0 -1.861)" fill="#fff"/>
    <path id="パス_72" data-name="パス 72" d="M204.347,396.736a1.559,1.559,0,1,0-1.559-1.559A1.559,1.559,0,0,0,204.347,396.736Z" transform="translate(-3.866 -3.626)" fill="#fff"/>
    <path id="パス_73" data-name="パス 73" d="M179.924,370a6.83,6.83,0,1,0-6.83-6.83A6.837,6.837,0,0,0,179.924,370Zm0-11.4a4.573,4.573,0,1,1-4.573,4.572A4.577,4.577,0,0,1,179.924,358.6Z" transform="translate(-0.978 0)" fill="#fff"/>
  </g>
</svg>
