<svg xmlns="http://www.w3.org/2000/svg" width="41.587" height="35.275" viewBox="0 0 41.587 35.275">
  <path id="パス_81" data-name="パス 81" d="M9.219.9a4.11,4.11,0,0,1-3.477.02,4.743,4.743,0,0,1-2.5-2.637,6.306,6.306,0,0,1-.625-2.4,18.2,18.2,0,0,1,.1-3.4,28.413,28.413,0,0,1,1.094-4.9q.879-2.93,1.855-5.469a25.139,25.139,0,0,1,1.6-3.574q.625-1.035,1.211-2.012a1.749,1.749,0,0,1,1.094-.586H9.8a3.021,3.021,0,0,1,1.172,1.25q1.523-.039,2.441.02a5.543,5.543,0,0,1,2.539,1.25,7.737,7.737,0,0,1,2.48,3.066,12.169,12.169,0,0,1,.234,6.836A18.343,18.343,0,0,1,16.6-6.191Q15.391-4.3,15-3.789a13.76,13.76,0,0,1-3.5,3.5A10.354,10.354,0,0,1,9.219.9Zm1.875-20.781a1.121,1.121,0,0,1-1.328-.2A40.111,40.111,0,0,0,7.109-14.57a45.7,45.7,0,0,0-1.5,5.391A17.1,17.1,0,0,0,5.02-4.922a17.359,17.359,0,0,0,.371,2.383q.82,2.383,3.281,1.406a7.1,7.1,0,0,0,1.719-.977,9.089,9.089,0,0,0,1.523-1.484,22.622,22.622,0,0,0,4.434-7.617q1.074-3.555.879-4.609a5.841,5.841,0,0,0-.469-1.582,7.874,7.874,0,0,0-1.23-1.66,3.514,3.514,0,0,0-2.148-1.191A3.706,3.706,0,0,0,11.094-19.883Zm19.531-1.8q-.469.078-.918.176a.737.737,0,0,1-.781-.352,4.2,4.2,0,0,1-.527-.937,1.121,1.121,0,0,1-.078-.8q.117-.352.859-.527a17.271,17.271,0,0,1,2.5-.293,5.36,5.36,0,0,1,.664-.039,8.115,8.115,0,0,1,2.656.43,5.092,5.092,0,0,1,2.793,2.4,5.043,5.043,0,0,1,.488,3.613,9.975,9.975,0,0,1-2.051,3.633,15.48,15.48,0,0,1-1.777,1.68,5.54,5.54,0,0,1,2.5,2.168,7.515,7.515,0,0,1,.977,4.414A7.568,7.568,0,0,1,35.156-.781a10.7,10.7,0,0,1-4.941,2.91,10.809,10.809,0,0,1-3.3.293,2.129,2.129,0,0,1-1.172-.742A2.965,2.965,0,0,1,25.2.723a1.9,1.9,0,0,1-.039-.859q.078-.449.664-.488a7.211,7.211,0,0,0,4.492-.254,9.157,9.157,0,0,0,3.594-2.559A6.964,6.964,0,0,0,35.625-7.3a4.049,4.049,0,0,0-.273-1.816,2,2,0,0,0-1.035-1.211,2.058,2.058,0,0,0-1.5-.02q-1.719.273-3.828.742a1.066,1.066,0,0,1-.957.02,2.513,2.513,0,0,1-.645-.645q-.547-1.6-.332-1.992t1.465-.586a9.426,9.426,0,0,0,3.652-1.348,11.125,11.125,0,0,0,2.383-2.109A9.206,9.206,0,0,0,36-18.594a3.049,3.049,0,0,0,.254-1.992q-.234-.781-2.031-1.27A5.767,5.767,0,0,0,30.625-21.68Z" transform="matrix(0.966, -0.259, 0.259, 0.966, 3.841, 33.563)" fill="#ff9158"/>
</svg>
