<svg xmlns="http://www.w3.org/2000/svg" width="48.67" height="40.012" viewBox="0 0 48.67 40.012">
  <path id="パス_82" data-name="パス 82" d="M9.219.9a4.11,4.11,0,0,1-3.477.02,4.743,4.743,0,0,1-2.5-2.637,6.306,6.306,0,0,1-.625-2.4,18.2,18.2,0,0,1,.1-3.4,28.413,28.413,0,0,1,1.094-4.9q.879-2.93,1.855-5.469a25.139,25.139,0,0,1,1.6-3.574q.625-1.035,1.211-2.012a1.749,1.749,0,0,1,1.094-.586H9.8a3.021,3.021,0,0,1,1.172,1.25q1.523-.039,2.441.02a5.543,5.543,0,0,1,2.539,1.25,7.737,7.737,0,0,1,2.48,3.066,12.169,12.169,0,0,1,.234,6.836A18.343,18.343,0,0,1,16.6-6.191Q15.391-4.3,15-3.789a13.76,13.76,0,0,1-3.5,3.5A10.354,10.354,0,0,1,9.219.9Zm1.875-20.781a1.121,1.121,0,0,1-1.328-.2A40.111,40.111,0,0,0,7.109-14.57a45.7,45.7,0,0,0-1.5,5.391A17.1,17.1,0,0,0,5.02-4.922a17.359,17.359,0,0,0,.371,2.383q.82,2.383,3.281,1.406a7.1,7.1,0,0,0,1.719-.977,9.089,9.089,0,0,0,1.523-1.484,22.622,22.622,0,0,0,4.434-7.617q1.074-3.555.879-4.609a5.841,5.841,0,0,0-.469-1.582,7.874,7.874,0,0,0-1.23-1.66,3.514,3.514,0,0,0-2.148-1.191A3.706,3.706,0,0,0,11.094-19.883Zm25.43,14.1q-1.8.078-4.395.273T27.266-5.2a1.7,1.7,0,0,1-2.148-1.172,1.738,1.738,0,0,1,.039-1.484,14.586,14.586,0,0,0,1.406-1.562Q27.578-10.7,29-12.6t3.379-4.57q1.953-2.676,3.418-4.707t2.48-3.32a1.177,1.177,0,0,1,.664-.781,1.475,1.475,0,0,1,.469-.078,1.379,1.379,0,0,1,.547.117,1.584,1.584,0,0,1,.742.879,1.932,1.932,0,0,1,.039,1.152q-3.438,4.375-6.309,8.184T28.516-7.773a42.03,42.03,0,0,0,4.473-.078q2.129-.156,4.16-.312a21.358,21.358,0,0,0,1.074-3.5q.566-2.363.879-3.77t.469-2.344a9.366,9.366,0,0,0,.156-1.367.635.635,0,0,1,.664-.43,1.69,1.69,0,0,1,1.074.313,1.179,1.179,0,0,1,.566.938,5.569,5.569,0,0,1-.293,1.953q-.371,1.328-1.016,3.848T39.688-8.437q1.016-.039,2.129-.176a6.437,6.437,0,0,0,1.523-.312,1.233,1.233,0,0,1,.762-.1,1.221,1.221,0,0,1,.605.7q.1.391.176.742a.685.685,0,0,1-.156.625,1.677,1.677,0,0,1-.566.43,3.079,3.079,0,0,1-.762.234,8.2,8.2,0,0,0-2.227.137,10.769,10.769,0,0,1-2.227.215q-.625,2.93-1.074,4.824t-.645,3.164q-.2,1.27-.273,1.66a.731.731,0,0,1-.723.313,1.559,1.559,0,0,1-1-.625,2.292,2.292,0,0,1-.352-1.719q.625-2.344,1.035-4.219T36.523-5.781Z" transform="matrix(0.966, -0.259, 0.259, 0.966, 4.255, 36.789)" fill="#ff9158"/>
</svg>
