<svg xmlns="http://www.w3.org/2000/svg" width="46.477" height="38.296" viewBox="0 0 46.477 38.296">
  <path id="パス_83" data-name="パス 83" d="M9.219.9a4.11,4.11,0,0,1-3.477.02,4.743,4.743,0,0,1-2.5-2.637,6.306,6.306,0,0,1-.625-2.4,18.2,18.2,0,0,1,.1-3.4,28.413,28.413,0,0,1,1.094-4.9q.879-2.93,1.855-5.469a25.139,25.139,0,0,1,1.6-3.574q.625-1.035,1.211-2.012a1.749,1.749,0,0,1,1.094-.586H9.8a3.021,3.021,0,0,1,1.172,1.25q1.523-.039,2.441.02a5.543,5.543,0,0,1,2.539,1.25,7.737,7.737,0,0,1,2.48,3.066,12.169,12.169,0,0,1,.234,6.836A18.343,18.343,0,0,1,16.6-6.191Q15.391-4.3,15-3.789a13.76,13.76,0,0,1-3.5,3.5A10.354,10.354,0,0,1,9.219.9Zm1.875-20.781a1.121,1.121,0,0,1-1.328-.2A40.111,40.111,0,0,0,7.109-14.57a45.7,45.7,0,0,0-1.5,5.391A17.1,17.1,0,0,0,5.02-4.922a17.359,17.359,0,0,0,.371,2.383q.82,2.383,3.281,1.406a7.1,7.1,0,0,0,1.719-.977,9.089,9.089,0,0,0,1.523-1.484,22.622,22.622,0,0,0,4.434-7.617q1.074-3.555.879-4.609a5.841,5.841,0,0,0-.469-1.582,7.874,7.874,0,0,0-1.23-1.66,3.514,3.514,0,0,0-2.148-1.191A3.706,3.706,0,0,0,11.094-19.883ZM27.539-2.539q.352.43.977,1.367a2.16,2.16,0,0,0,1.25,1.055,4.644,4.644,0,0,0,2.266-.508,6.054,6.054,0,0,0,2.383-1.719,3.283,3.283,0,0,0,.84-2.676,3.9,3.9,0,0,0-1.113-2.6,8.413,8.413,0,0,0-2.5-1.8,7.924,7.924,0,0,1-1.6-.82,8.775,8.775,0,0,1-1.25-1.191,2.291,2.291,0,0,1-.273-1.543q.508-2.3.938-3.789a8.916,8.916,0,0,0,.43-2.266,3,3,0,0,1,.43-1.523,6.363,6.363,0,0,0,.8-1.953q.41-1.445.8-3.477a.97.97,0,0,1,.508-.586h.156a1.923,1.923,0,0,1,.859.313,1.694,1.694,0,0,1,.879,1.074,2.207,2.207,0,0,1-.02,1.27,12.93,12.93,0,0,0-1.016,2.324q-.234.84-.664,2.207,3.047-.508,5.117-.9t3.2-.7a1.187,1.187,0,0,1,1.289.352,4.567,4.567,0,0,1,.586.918,1.383,1.383,0,0,1,.117.957q-.117.469-1.055.625a12.346,12.346,0,0,0-2.773,0q-1.367.156-3.281.527t-3.75.879a14.954,14.954,0,0,0-.527,1.758,13.533,13.533,0,0,0-.254,2.07,1.387,1.387,0,0,0,.7,1.25,23.455,23.455,0,0,1,2.422,1.68q2.773,2.187,3.066,4.316a7,7,0,0,1-.312,3.613,6.181,6.181,0,0,1-1.855,2.5,7.551,7.551,0,0,1-2.871,1.543,5.813,5.813,0,0,1-3.3.02,5.831,5.831,0,0,1-2.93-2.07A2.279,2.279,0,0,1,25.879-1.6a1.243,1.243,0,0,1,.723-1A.826.826,0,0,1,27.539-2.539Z" transform="matrix(0.966, -0.259, 0.259, 0.966, 4.387, 36.779)" fill="#ff9158"/>
</svg>
