<svg xmlns="http://www.w3.org/2000/svg" width="46.751" height="35.261" viewBox="0 0 46.751 35.261">
  <path id="パス_80" data-name="パス 80" d="M9.219.9a4.11,4.11,0,0,1-3.477.02,4.743,4.743,0,0,1-2.5-2.637,6.306,6.306,0,0,1-.625-2.4,18.2,18.2,0,0,1,.1-3.4,28.413,28.413,0,0,1,1.094-4.9q.879-2.93,1.855-5.469a25.139,25.139,0,0,1,1.6-3.574q.625-1.035,1.211-2.012a1.749,1.749,0,0,1,1.094-.586H9.8a3.021,3.021,0,0,1,1.172,1.25q1.523-.039,2.441.02a5.543,5.543,0,0,1,2.539,1.25,7.737,7.737,0,0,1,2.48,3.066,12.169,12.169,0,0,1,.234,6.836A18.343,18.343,0,0,1,16.6-6.191Q15.391-4.3,15-3.789a13.76,13.76,0,0,1-3.5,3.5A10.354,10.354,0,0,1,9.219.9Zm1.875-20.781a1.121,1.121,0,0,1-1.328-.2A40.111,40.111,0,0,0,7.109-14.57a45.7,45.7,0,0,0-1.5,5.391A17.1,17.1,0,0,0,5.02-4.922a17.359,17.359,0,0,0,.371,2.383q.82,2.383,3.281,1.406a7.1,7.1,0,0,0,1.719-.977,9.089,9.089,0,0,0,1.523-1.484,22.622,22.622,0,0,0,4.434-7.617q1.074-3.555.879-4.609a5.841,5.841,0,0,0-.469-1.582,7.874,7.874,0,0,0-1.23-1.66,3.514,3.514,0,0,0-2.148-1.191A3.706,3.706,0,0,0,11.094-19.883ZM30.469-3.242a37.931,37.931,0,0,0,3.926-.137q2.129-.176,5.078-.547t4.121-.566a.639.639,0,0,1,.586.742A1.581,1.581,0,0,1,43.711-2.7a1.671,1.671,0,0,1-.859.508q-2.3.43-6.758.918t-6.035.781Q28.477-.2,26.914.117a1.709,1.709,0,0,1-.84-.137,2.754,2.754,0,0,1-.742-.469,4.393,4.393,0,0,1-.586-.625,1.28,1.28,0,0,1-.254-.8,1.554,1.554,0,0,1,.586-.82A6.768,6.768,0,0,0,27.4-3.965q1.035-.84,1.855-1.582t3.555-4a47.213,47.213,0,0,0,4.219-5.723,15.927,15.927,0,0,0,1.719-3.4q.234-.937-.84-1.543a5.4,5.4,0,0,0-2.617-.625,5.823,5.823,0,0,0-2.988.8A4.78,4.78,0,0,0,30.2-17.5q-.273.469-.645.391a2.485,2.485,0,0,1-.9-.469,2.038,2.038,0,0,1-.723-.9,1.49,1.49,0,0,1,.156-1.211,6.579,6.579,0,0,1,1.68-1.8,9.279,9.279,0,0,1,3.711-1.68,7.507,7.507,0,0,1,1.953-.273,5.556,5.556,0,0,1,2.188.43,5.272,5.272,0,0,1,2.344,1.465,6.2,6.2,0,0,1,.84,1.621,4.449,4.449,0,0,1,.176,1.934,9.6,9.6,0,0,1-1.328,3.2,61.627,61.627,0,0,1-3.906,5.762A33.432,33.432,0,0,1,30.469-3.242Z" transform="matrix(0.966, -0.259, 0.259, 0.966, 3.74, 34.678)" fill="#ff9158"/>
</svg>
