<svg xmlns="http://www.w3.org/2000/svg" xmlns:xlink="http://www.w3.org/1999/xlink" width="89.899" height="35.242" viewBox="0 0 89.899 35.242">
  <defs>
    <linearGradient id="linear-gradient" x1="0.141" y1="1" x2="1" gradientUnits="objectBoundingBox">
      <stop offset="0" stop-color="#ffbb1e"/>
      <stop offset="1" stop-color="#ff9158"/>
    </linearGradient>
  </defs>
  <g id="グループ_102" data-name="グループ 102" transform="translate(-417.55 -4562.843)">
    <path id="パス_92" data-name="パス 92" d="M0,0H89V16H0Z" transform="matrix(0.998, -0.07, 0.07, 0.998, 417.55, 4582.124)" fill="url(#linear-gradient)"/>
    <path id="パス_91" data-name="パス 91" d="M5.605-16.461a4.589,4.589,0,0,0-.848.424,2.712,2.712,0,0,0-.711.752,1.673,1.673,0,0,1-.561.41q-.232.082-.643-.26a1.462,1.462,0,0,1-.506-.67.762.762,0,0,1,.068-.615,4.231,4.231,0,0,1,.9-.889,7.429,7.429,0,0,1,2.707-1.039,11.192,11.192,0,0,1,2.352-.246,13.67,13.67,0,0,1,1.7.109,8.955,8.955,0,0,1,3.473,1.148,4.474,4.474,0,0,1,1.381,1.5,3.721,3.721,0,0,1,.506,1.982,4.233,4.233,0,0,1-.547,1.982,13.132,13.132,0,0,1-3.008,3.609,11.658,11.658,0,0,1-3.24,2.105,11.04,11.04,0,0,1-2.215.738A2.638,2.638,0,0,1,5.031-5.66q-.137.684-.424,2.105a20.4,20.4,0,0,0-.369,2.6Q4.156.219,4.129.656a4.452,4.452,0,0,0,.164,1.23q.027.684-.424.766a1.57,1.57,0,0,1-.889-.1q-.438-.178-.547-.971a8.33,8.33,0,0,1-.027-2.625q.191-1.5.52-3.336T3.951-9.092q.7-2.885,1.162-5.018T5.605-16.461Zm-.3,9.27a4.317,4.317,0,0,0,1.668-.342A12.535,12.535,0,0,0,9.338-8.7a10.808,10.808,0,0,0,2.2-1.777,10.49,10.49,0,0,0,2.242-3.172,2.641,2.641,0,0,0,.232-1.012.952.952,0,0,0-.479-.848,4.361,4.361,0,0,0-1.928-1.012,11.65,11.65,0,0,0-2.187-.4,7.919,7.919,0,0,0-1.818.068q-.219.629-.547,1.928T6.18-11.211Q5.633-8.8,5.3-7.191Zm20.1,6.48A2.761,2.761,0,0,1,22.92.137a2.822,2.822,0,0,1-.848-.287,5.2,5.2,0,0,1-.793-.479A3.446,3.446,0,0,1,20.144-2a5.6,5.6,0,0,1-.533-1.75,6.051,6.051,0,0,1,.027-1.723A12.309,12.309,0,0,1,20.5-8.764a25.715,25.715,0,0,1,1.436-2.967,3.278,3.278,0,0,1,.875-.875,1,1,0,0,1,.779-.15,4.3,4.3,0,0,1,.725.26.529.529,0,0,0,.67.082q.424-.191.752-.328a2.224,2.224,0,0,1,.957-.219,2.554,2.554,0,0,1,1.477.52A5.082,5.082,0,0,1,29.728-9.9a5.949,5.949,0,0,1,.109,1.5,5.8,5.8,0,0,1-.561,2.133,19.224,19.224,0,0,1-1.545,2.734A17.2,17.2,0,0,1,25.408-.711Zm-2.461-8.8q-.164.328-.643,1.2a12.546,12.546,0,0,0-.943,2.543,5.541,5.541,0,0,0,.082,3.035,2.219,2.219,0,0,0,.451.889,1.715,1.715,0,0,0,.738.52.886.886,0,0,0,.82-.109,7.589,7.589,0,0,0,.807-.615,16.652,16.652,0,0,0,3.309-4.457,6.436,6.436,0,0,0,.9-3.309,1.526,1.526,0,0,0-.342-.834,1.744,1.744,0,0,0-.7-.506,1.425,1.425,0,0,0-.875-.055,3.158,3.158,0,0,0-1.654.779l-.875.834Q23.767-9.352,22.947-9.516ZM38.62-9.652q-.41,1.367-.725,2.816a26.507,26.507,0,0,0-.465,2.912q-.15,1.463-.178,2.311.438,1.039.055,1.381a1.146,1.146,0,0,1-.752.342,1.1,1.1,0,0,1-.588-.137.586.586,0,0,1-.273-.383q-.055-.246-.082-.465a10.565,10.565,0,0,1-.041-2.215q.1-1.121.424-3.213t.793-4.744a1.3,1.3,0,0,1,.342-.52q.178-.137.615.082a1.955,1.955,0,0,1,.7.561,1.05,1.05,0,0,1,.26.6A3.565,3.565,0,0,1,38.62-9.652Zm-3.8-7.164q2.078-.328,4.266-.492a1.391,1.391,0,0,1,.273-.027,2.182,2.182,0,0,1,.574.082,1.7,1.7,0,0,1,.684.465,2.99,2.99,0,0,1,.383.479q.082.15-.014.205a2.931,2.931,0,0,1-.424.164q-2.16.41-4.348.766a1.124,1.124,0,0,1-1.2-.437A1.257,1.257,0,0,1,34.82-16.816ZM61.048-4.484a.688.688,0,0,1,.178.67,2.078,2.078,0,0,1-.4.752q-.273.328-1.094,1.135A6.569,6.569,0,0,1,58.095-.711a2.678,2.678,0,0,1-1.777.3,2.26,2.26,0,0,1-1.463-.93,2.5,2.5,0,0,1-.506-1.668,7.458,7.458,0,0,1,.191-1.436q.164-.7.424-1.928t.41-2.187a2.146,2.146,0,0,0-.1-1.367,5.109,5.109,0,0,0-1.189.766,15.285,15.285,0,0,0-1.8,1.9A28.434,28.434,0,0,0,50.233-4.5q-.916,1.408-1.928,3.076a5.483,5.483,0,0,0-.246.656q-.109.355-.191.684a.88.88,0,0,1-.4.561A1.077,1.077,0,0,1,46.692.3a1.721,1.721,0,0,1-.643-.684,1.429,1.429,0,0,1-.15-.93,92.849,92.849,0,0,1,2.078-9.406,2.369,2.369,0,0,1,.273-.6q.109-.191.246-.191h.027a3.063,3.063,0,0,1,.52.164,1.323,1.323,0,0,1,.492.3.6.6,0,0,1,.191.438,1.548,1.548,0,0,1-.082.492q-.6,2.078-1.012,3.568a7.98,7.98,0,0,0-.383,2.092A30.073,30.073,0,0,1,50.6-7.807,22.149,22.149,0,0,1,53.993-11.1a1.86,1.86,0,0,1,.738-.355A1.391,1.391,0,0,1,55-11.484a1.2,1.2,0,0,1,.492.109,3.024,3.024,0,0,1,.574.492A3.132,3.132,0,0,1,56.8-9.857a2.143,2.143,0,0,1,.123,1.3q-.219,1.7-.479,3.309t-.369,2.188q-.082.9.178,1.039a.878.878,0,0,0,.67.014A5,5,0,0,0,58-2.543Q58.669-2.953,61.048-4.484Zm9.33-6.781A20.415,20.415,0,0,0,69.6-8.449q-.369,1.723-.629,3.514a13.958,13.958,0,0,0-.205,2.611,3.861,3.861,0,0,0,.164,1.066,10.712,10.712,0,0,0,2.379-1.025Q72.4-2.926,73.385-3.5a.347.347,0,0,1,.451.109q.15.219-.055.834a2.425,2.425,0,0,1-.889,1.135,11.958,11.958,0,0,1-1.148.82q-.492.3-1.258.684a2.284,2.284,0,0,1-1.518.191,2.039,2.039,0,0,1-1.285-.82,2.7,2.7,0,0,1-.533-1.422,40.154,40.154,0,0,1,.67-5.742q.506-2.543.615-3.117-.711.109-1.463.3t-1.381.355a1.354,1.354,0,0,1-.82-.1.9.9,0,0,1-.533-.615,1.874,1.874,0,0,1-.1-.67q.027-.232.383-.287l2.816-.6q.766-.164,1.422-.355.164-.684.328-1.477t.41-2.352a.512.512,0,0,1,.383-.383h.137a1.529,1.529,0,0,1,.574.137.916.916,0,0,1,.492.684,2.008,2.008,0,0,1-.027.875q-.191,1.121-.41,2.16,1.285-.246,2.078-.383t1.777-.355a.825.825,0,0,1,.807.205,1.326,1.326,0,0,1,.287.643.785.785,0,0,1-.068.547.752.752,0,0,1-.561.246Z" transform="matrix(0.998, -0.07, 0.07, 0.998, 423.452, 4586.666)"/>
  </g>
</svg>
