<svg xmlns="http://www.w3.org/2000/svg" width="109.7" height="622.149" viewBox="0 0 109.7 622.149">
  <path id="パス_79" data-name="パス 79" d="M31.38-35.16c-2.94-4.56-7.56-6.78-14.16-6.78-9.72,0-13.8,5.22-13.8,11.46,0,7.02,4.5,10.86,12.48,12.54,7.2,1.56,9.06,3.6,9.06,6.9,0,3-1.8,5.52-7.5,5.52-4.74,0-7.2-1.56-9.66-4.5L2.34-6.24C5.76-1.62,10.74.54,17.82.54c9.96,0,14.1-5.7,14.1-11.88,0-7.44-4.32-10.56-12.66-12.36-5.76-1.26-8.88-2.82-8.88-6.78,0-3.48,2.52-5.4,6.78-5.4,4.68,0,6.9,1.68,8.94,4.5ZM38.4-24.48h3.84V-9.54C42.24-2.46,44.82,0,52.02,0h2.94V-5.76H52.5c-3.36,0-3.9-1.5-3.9-4.98V-24.48h6.36V-30H48.6v-6.6H42.24V-30H38.4ZM87.9-30H81.54v18.12c0,4.14-2.16,6.78-6.12,6.78-3.36,0-5.76-1.5-5.76-6.84V-30H63.24v18.72C63.24-2.64,68.04.54,74.22.54c4.2,0,6-1.08,7.38-3.24V0h6.3Zm27.78,2.1a9.56,9.56,0,0,0-7.2-2.64c-7.26,0-11.94,4.8-11.94,13.44v4.08C96.54-5.16,100.5.54,108.48.54c3.3,0,5.58-.96,7.2-2.64V0h6.36V-41.4h-6.36ZM109.32-4.98c-4.62,0-6.42-3.66-6.42-8.34V-16.8c0-5.22,2.1-8.16,6.42-8.16,4.14,0,6.36,2.88,6.36,7.8v3.84C115.68-8.64,114.12-4.98,109.32-4.98ZM128.82-30,140.28.36c-1.5,4.5-3.18,5.16-7.38,5.16V11.4c8.4,0,10.62-2.52,13.2-10.2L156.66-30h-6.6L143.22-8.88,135.6-30Zm50.1,0v5.52h3.84V0h6.36V-24.48h5.28V-30h-5.28v-.66c0-3.48.54-4.98,3.9-4.98h1.38V-41.4h-1.86c-7.2,0-9.78,2.46-9.78,9.54V-30ZM226.2-16.92c0-8.82-4.62-13.62-12.72-13.62s-12.78,4.8-12.78,13.62v3.78c0,8.28,4.38,13.68,12.78,13.68,8.82,0,12.72-5.7,12.72-13.68ZM213.48-4.98c-4.86,0-6.42-3.66-6.42-8.34V-16.8c0-5.16,2.1-8.16,6.42-8.16,4.26,0,6.36,2.94,6.36,8.16v3.48C219.84-8.64,218.04-4.98,213.48-4.98ZM256.14-26.1a9.1,9.1,0,0,0-8.34-4.44c-3.54,0-5.58,1.5-6.72,3.24V-30h-6.3V0h6.42V-18.12c0-4.32,2.28-6.72,5.52-6.72a4.973,4.973,0,0,1,4.32,2.34ZM298.5-41.4h-7.56l-8.46,18.3c-1.86,4.08-3.36,7.8-3.36,10.86,0,8.28,5.7,12.78,13.08,12.78,7.44,0,13.02-4.56,13.02-12.9,0-7.02-4.68-12.24-11.16-12.24a8.989,8.989,0,0,0-3.96.78ZM286.08-12.18c0-3.96,2.28-6.66,6.12-6.66,3.78,0,6.06,2.7,6.06,6.66,0,4.02-2.28,6.66-6.06,6.66C288.36-5.52,286.08-8.16,286.08-12.18ZM332.28,0h6.42V-18.12c0-4.2,2.34-6.72,5.64-6.72,3.06,0,5.28,1.68,5.28,6.78V0h6.36V-18.42c.12-4.02,2.4-6.42,5.58-6.42,3.3,0,5.34,1.86,5.34,6.78V0h6.42V-18.78c0-7.8-3.9-11.76-10.38-11.76a10.556,10.556,0,0,0-8.76,4.32c-1.8-2.82-4.8-4.32-8.58-4.32-3.54,0-5.82,1.44-7.02,3.24V-30h-6.3ZM407.4-16.92c0-8.82-4.62-13.62-12.72-13.62s-12.78,4.8-12.78,13.62v3.78c0,8.28,4.38,13.68,12.78,13.68,8.82,0,12.72-5.7,12.72-13.68ZM394.68-4.98c-4.86,0-6.42-3.66-6.42-8.34V-16.8c0-5.16,2.1-8.16,6.42-8.16,4.26,0,6.36,2.94,6.36,8.16v3.48C401.04-8.64,399.24-4.98,394.68-4.98ZM415.98,0h6.42V-18.12c0-4.02,2.22-6.72,6.18-6.72,3.3,0,5.7,1.5,5.7,6.78V0h6.36V-18.78c0-8.64-4.74-11.76-10.92-11.76-3.96,0-6.12,1.44-7.44,3.24V-30h-6.3Zm32.16-24.48h3.84V-9.54c0,7.08,2.58,9.54,9.78,9.54h2.94V-5.76h-2.46c-3.36,0-3.9-1.5-3.9-4.98V-24.48h6.36V-30h-6.36v-6.6h-6.36V-30h-3.84ZM472.98,0h6.42V-18.12c0-4.02,2.22-6.72,6.18-6.72,3.3,0,5.7,1.5,5.7,6.78V0h6.36V-18.78c0-8.64-4.74-11.76-10.92-11.76-3.9,0-6.06,1.32-7.32,3.12V-41.4h-6.42ZM528.9-25.56c-2.34-3.72-6.24-4.98-11.16-4.98-7.32,0-11.22,3.6-11.22,8.94,0,6.3,4.8,8.7,10.5,9.42,4.68.6,6.24,1.32,6.24,3.78,0,2.1-1.92,3.3-5.22,3.3-3.96,0-5.76-.96-7.14-2.82l-4.86,3.48C508.5-1.14,511.98.54,518.1.54c7.74,0,11.52-3.6,11.52-9.12,0-6.36-4.32-8.7-10.98-9.48-3.48-.42-5.7-1.2-5.7-3.72,0-2.16,1.98-3.06,4.68-3.06,3.6,0,5.1.84,6.54,2.7ZM545.7-8.28h-7.08V9.18l7.08-6.06ZM9.6,13.6H3.42V55H9.6V52.84c1.5,1.8,3.84,2.7,7.2,2.7,8.04,0,11.94-5.7,11.94-13.68V38.08c0-8.82-4.62-13.62-11.94-13.62-3.18,0-5.58.9-7.2,2.88Zm6.36,36.42c-4.68,0-6.36-3.66-6.36-8.34V37.84c.06-4.92,2.22-7.8,6.36-7.8,4.32,0,6.36,2.94,6.36,8.16v3.48C22.32,46.36,20.58,50.02,15.96,50.02Zm39.18-2.94c-1.2,1.86-2.64,2.94-6.18,2.94-4.74,0-6.54-3.66-6.54-8.34v-.12H60.36v-3.3c0-8.88-3.9-13.8-12.12-13.8-7.86,0-12.18,4.62-12.18,13.44v4.08c0,7.98,4.56,13.56,13.14,13.56,5.28,0,8.64-1.44,10.74-5.1Zm-6.9-17.04c3.66,0,5.46,2.22,5.7,6.6H42.48C42.78,32.56,44.52,30.04,48.24,30.04ZM87.3,47.08c-1.14,2.04-3.18,2.94-5.7,2.94-5.28,0-6.96-3.66-6.96-8.34V38.2c0-5.16,2.28-8.16,6.96-8.16a6.619,6.619,0,0,1,5.64,2.7l4.92-3.42c-2.1-3.18-5.88-4.86-10.44-4.86-8.58,0-13.44,4.8-13.44,13.44v4.08c0,8.16,4.8,13.56,13.2,13.56,5.16,0,8.7-1.56,10.68-5.1Zm35.94-9c0-8.82-4.62-13.62-12.72-13.62s-12.78,4.8-12.78,13.62v3.78c0,8.28,4.38,13.68,12.78,13.68,8.82,0,12.72-5.7,12.72-13.68ZM110.52,50.02c-4.86,0-6.42-3.66-6.42-8.34V38.2c0-5.16,2.1-8.16,6.42-8.16,4.26,0,6.36,2.94,6.36,8.16v3.48C116.88,46.36,115.08,50.02,110.52,50.02ZM131.82,55h6.42V36.88c0-4.2,2.34-6.72,5.64-6.72,3.06,0,5.28,1.68,5.28,6.78V55h6.36V36.58c.12-4.02,2.4-6.42,5.58-6.42,3.3,0,5.34,1.86,5.34,6.78V55h6.42V36.22c0-7.8-3.9-11.76-10.38-11.76a10.556,10.556,0,0,0-8.76,4.32c-1.8-2.82-4.8-4.32-8.58-4.32-3.54,0-5.82,1.44-7.02,3.24V25h-6.3Zm51.78,0h6.42V25H183.6Zm-.3-34.86h7.02V13.6H183.3ZM200.76,55h6.42V36.88c0-4.02,2.22-6.72,6.18-6.72,3.3,0,5.7,1.5,5.7,6.78V55h6.36V36.22c0-8.64-4.74-11.76-10.92-11.76-3.96,0-6.12,1.44-7.44,3.24V25h-6.3ZM253.2,27.1c-1.62-1.68-3.96-2.64-7.2-2.64-7.26,0-11.94,4.8-11.94,13.44v4.08c0,7.86,3.96,13.56,11.94,13.56q4.77,0,7.2-2.52V54.4c0,4.86-2.1,6.9-6.9,6.9-3.3,0-5.16-1.02-6.48-3l-4.5,3.24c2.4,3.84,5.76,5.22,11.16,5.22,7.8,0,13.08-3.12,13.08-12.36V25H253.2Zm-6.36,22.92c-4.62,0-6.42-3.66-6.42-8.34V38.2c0-5.22,2.1-8.16,6.42-8.16,4.26,0,6.36,3,6.36,8.16v3.48C253.2,46.36,251.64,50.02,246.84,50.02Zm39.12-3.84c0,6,4.08,9.36,10.68,9.36,3.66,0,5.52-.96,6.96-3.3V55h6.3V34.84c0-7.98-4.14-10.38-11.82-10.38-5.94,0-9.18,1.44-11.34,4.98l4.62,3.24c1.44-2.34,3.06-2.7,6.3-2.7,4.5,0,5.94,1.02,5.94,4.8V37.3h-6.48C290.7,37.3,285.96,39.76,285.96,46.18Zm17.64-2.52c0,5.22-2.34,6.42-6.24,6.42-3.06,0-5.1-1.14-5.1-3.9,0-2.64,1.56-3.96,5.34-3.96h6ZM319.74,55h6.42V36.88c0-4.02,2.22-6.72,6.18-6.72,3.3,0,5.7,1.5,5.7,6.78V55h6.36V36.22c0-8.64-4.74-11.76-10.92-11.76-3.96,0-6.12,1.44-7.44,3.24V25h-6.3Zm70.38-7.92c-1.2,1.86-2.64,2.94-6.18,2.94-4.74,0-6.54-3.66-6.54-8.34v-.12h17.94v-3.3c0-8.88-3.9-13.8-12.12-13.8-7.86,0-12.18,4.62-12.18,13.44v4.08c0,7.98,4.56,13.56,13.14,13.56,5.28,0,8.64-1.44,10.74-5.1Zm-6.9-17.04c3.66,0,5.46,2.22,5.7,6.6H377.46C377.76,32.56,379.5,30.04,383.22,30.04ZM404.52,55h6.42V36.88c0-4.02,2.22-6.72,6.18-6.72,3.3,0,5.7,1.5,5.7,6.78V55h6.36V36.22c0-8.64-4.74-11.76-10.92-11.76-3.96,0-6.12,1.44-7.44,3.24V25h-6.3Zm52.44-27.9c-1.62-1.68-3.96-2.64-7.2-2.64-7.26,0-11.94,4.8-11.94,13.44v4.08c0,7.86,3.96,13.56,11.94,13.56q4.77,0,7.2-2.52V54.4c0,4.86-2.1,6.9-6.9,6.9-3.3,0-5.16-1.02-6.48-3l-4.5,3.24c2.4,3.84,5.76,5.22,11.16,5.22,7.8,0,13.08-3.12,13.08-12.36V25h-6.36ZM450.6,50.02c-4.62,0-6.42-3.66-6.42-8.34V38.2c0-5.22,2.1-8.16,6.42-8.16,4.26,0,6.36,3,6.36,8.16v3.48C456.96,46.36,455.4,50.02,450.6,50.02ZM474.12,55h6.42V25h-6.42Zm-.3-34.86h7.02V13.6h-7.02ZM491.28,55h6.42V36.88c0-4.02,2.22-6.72,6.18-6.72,3.3,0,5.7,1.5,5.7,6.78V55h6.36V36.22c0-8.64-4.74-11.76-10.92-11.76-3.96,0-6.12,1.44-7.44,3.24V25h-6.3Zm52.38-7.92c-1.2,1.86-2.64,2.94-6.18,2.94-4.74,0-6.54-3.66-6.54-8.34v-.12h17.94v-3.3c0-8.88-3.9-13.8-12.12-13.8-7.86,0-12.18,4.62-12.18,13.44v4.08c0,7.98,4.56,13.56,13.14,13.56,5.28,0,8.64-1.44,10.74-5.1Zm-6.9-17.04c3.66,0,5.46,2.22,5.7,6.6H531C531.3,32.56,533.04,30.04,536.76,30.04Zm39.12,17.04c-1.2,1.86-2.64,2.94-6.18,2.94-4.74,0-6.54-3.66-6.54-8.34v-.12H581.1v-3.3c0-8.88-3.9-13.8-12.12-13.8-7.86,0-12.18,4.62-12.18,13.44v4.08c0,7.98,4.56,13.56,13.14,13.56,5.28,0,8.64-1.44,10.74-5.1Zm-6.9-17.04c3.66,0,5.46,2.22,5.7,6.6H563.22C563.52,32.56,565.26,30.04,568.98,30.04Zm42.66-1.14a9.1,9.1,0,0,0-8.34-4.44c-3.54,0-5.58,1.5-6.72,3.24V25h-6.3V55h6.42V36.88c0-4.32,2.28-6.72,5.52-6.72a4.973,4.973,0,0,1,4.32,2.34Zm11.64,17.82H615V55h8.28Z" transform="translate(67.26 -1.631) rotate(90)" fill="none" stroke="#000" stroke-width="1"/>
</svg>
