<svg xmlns="http://www.w3.org/2000/svg" width="364.93" height="130.748" viewBox="0 0 364.93 130.748">
  <path id="パス_79" data-name="パス 79" d="M18.477-27.93a2.919,2.919,0,0,1,.625-.078,1.731,1.731,0,0,1,.547.078,1.658,1.658,0,0,1,.742.8,1.538,1.538,0,0,1,0,1.27,30.252,30.252,0,0,0,4.727,4.766q1.836,1.562,3.711,3.047,1.953,1.523,3.984,2.93a65.347,65.347,0,0,0,5.82,3.672,1.809,1.809,0,0,1-1.016,2.07,4.249,4.249,0,0,1-1.309-.566q-.645-.41-4.707-3.105-2.539-1.719-5.039-3.711-1.445-1.133-2.852-2.344-3.867-3.359-5.039-4.531Q18.32-23.086,16.7-21t-3.945,5.254q-2.324,3.164-5.1,7.266Q5.82-5.742,5-4.3q-.391.7-.586,1.094Q3.945-2.031,3.555-.937q-1.914-.156-1.8-1.523a4.691,4.691,0,0,1,.156-.664,26.742,26.742,0,0,1,2.637-4.9q2.012-3.145,4.883-7.363t5.254-7.6A57.167,57.167,0,0,1,18.477-27.93ZM25.234-8.164q-.547,0-1.25.039a28,28,0,0,0-4.277.938,13.693,13.693,0,0,0-3.848,1.875,6.111,6.111,0,0,1-.781.586q-1.563,1.445-2.656-.586a7.079,7.079,0,0,1-.2-.7,3.4,3.4,0,0,1,.859-1.016,40.174,40.174,0,0,1,5.8-2.441,21.739,21.739,0,0,1,6-1.074,6.2,6.2,0,0,1,1.387.156,2.221,2.221,0,0,1,1.23.84,2.233,2.233,0,0,1,.547,1.406A3.325,3.325,0,0,1,27.773-6.8a21.973,21.973,0,0,1-2.422,4.453Q23.281.391,21.094,2.93a1.606,1.606,0,0,1-.586.41,1.007,1.007,0,0,1-.8.02,1.146,1.146,0,0,1-.566-.391,3,3,0,0,1-.312-.742A23.382,23.382,0,0,1,20.2,0,47.1,47.1,0,0,0,24.8-6.055,2.245,2.245,0,0,0,25.234-8.164ZM23.4-14.453q-.547.078-1.055.156-.859.117-1.6.2-2.266.508-4.492.859a1.622,1.622,0,0,1-2.031-1.289q-.352-1.289,1.016-1.484,3.164-.273,6.289-.352a2.261,2.261,0,0,1,.957.059.926.926,0,0,1,.723.684,3.414,3.414,0,0,1,.156.742ZM70.563,1.523a19.551,19.551,0,0,1,.43-2.5Q69.43-.547,67.105.156T62.75,1.348a23.318,23.318,0,0,0-3.359,1.035,1.271,1.271,0,0,1-1.445.039,4.331,4.331,0,0,1-2.93-3.594,39.391,39.391,0,0,1-.43-4.609V-7.539q.039-1.523.156-3.164.2-2.656.625-6.172t.82-5.664q.078-1.094.977-1.094a1.987,1.987,0,0,1,.391.039,2.036,2.036,0,0,1,1.289,2.031q-.117.859-.156,1.445.352-.117,1.66-.566T63.414-21.7a32.126,32.126,0,0,1,3.965-.977q2.207-.41,5.176-.84a4.48,4.48,0,0,1,.547-.039q1.875,0,1.953,2.188.039,1.094.039,2.031,0,.547-.039,1.055-.078,1.289-.215,4.57T74.2-5.977Q73.688-1.523,73.375,0A5.379,5.379,0,0,1,73,1.211a1.057,1.057,0,0,1-.937.742A2.87,2.87,0,0,1,70.563,1.523ZM57.2-5.43a30.143,30.143,0,0,0,.391,4.414A2.7,2.7,0,0,0,57.945,0,16.715,16.715,0,0,0,60.5-.508q2.09-.508,4.8-1.133T69.117-2.6a4.752,4.752,0,0,1,1.992-.215,59.324,59.324,0,0,0,.859-7.617,12.288,12.288,0,0,0-4.121.215,38.846,38.846,0,0,0-5.215,1.133,17.669,17.669,0,0,0-2.969,1.113,2.209,2.209,0,0,1-2.344-.469Q57.2-6.641,57.2-5.43Zm3.828-5.664q2.5-.625,5.527-1.191a27.126,27.126,0,0,1,3.652-.547,5.784,5.784,0,0,1,1.992.684q.234-2.266.273-3.945.039-1.016.078-1.8v-1.055a5.735,5.735,0,0,0-.234-1.992,7.15,7.15,0,0,0-1.8.137,47.788,47.788,0,0,0-4.785,1.094,13.961,13.961,0,0,0-4.316,1.66,3.4,3.4,0,0,1-1.133.41,1.69,1.69,0,0,1-1.172-.254,4.983,4.983,0,0,1-.7-.469,12.287,12.287,0,0,0-.469,2.773q-.2,2.07-.508,5.469.977-.312,3.125-.859A3.085,3.085,0,0,0,61.031-11.094Zm41.617-8.594,1.563-.078a5.459,5.459,0,0,1,1.367.137,1.746,1.746,0,0,1,.879.566q.371.43.234.723a7.452,7.452,0,0,1-.566.918,14.188,14.188,0,0,0-2.129.176q-1.152.176-2.246.449a17.7,17.7,0,0,0-.937,2.813q-.273,1.211-.7,3.125l2.422-.43q1.016-.156,3.086-.273a1.182,1.182,0,0,1,.547,1.074,1.231,1.231,0,0,1-.469.859,3.9,3.9,0,0,1-1.328.527,33.312,33.312,0,0,0-4.453,1.211,11.552,11.552,0,0,0-.2,2.93q.117.977.313,1.992.508,2.891,3.2,1.719a22.785,22.785,0,0,0,2.07-1.27q1.055-.723,3.027-2.324t2.734-2.246a4.916,4.916,0,0,1,1.387-.879.453.453,0,0,1,.508.371,2.964,2.964,0,0,1,.059.762,5.061,5.061,0,0,1-.645,1.563,70.046,70.046,0,0,1-5.586,5.234,7.917,7.917,0,0,1-2.168,1.426,4.283,4.283,0,0,1-2.441.332A5.252,5.252,0,0,1,99.934.625,7.324,7.324,0,0,1,98.293-1.27a5.552,5.552,0,0,1-.762-2.4q-.117-1.758-.273-3.477-.742.117-1.6.313a3.633,3.633,0,0,1-1.074.156,1.367,1.367,0,0,1-1-.43,1.939,1.939,0,0,1-.547-.977,3.877,3.877,0,0,1-.078-1.094q2.266-.547,4.57-1.133.391-1.367.664-2.852a20.215,20.215,0,0,1,.859-3.125q-2.188.508-3.945.859a3,3,0,0,1-1.055.137,1.54,1.54,0,0,1-1.016-.41,1.53,1.53,0,0,1-.508-.937q-.078-.547-.117-1.133,1.992-.469,3.691-.8t3.73-.84a11.042,11.042,0,0,0,.664-1.992q.313-1.25.977-3.32.352-.742.82-.82h.156a1.19,1.19,0,0,1,.742.273,2.332,2.332,0,0,1,.605.9,2.146,2.146,0,0,1-.176,1.523Q103.156-21.445,102.648-19.687Zm26.344-2.461-4.57,1.523a1.354,1.354,0,0,1-1.133-.566,1,1,0,0,1-.156-1.113,1.162,1.162,0,0,1,.508-.547q2.7-.859,5.742-1.68.273-2.227.391-3.789a.769.769,0,0,1,.664-.9h.156a1.122,1.122,0,0,1,.977.508,2.342,2.342,0,0,1,.41,1.25,10.1,10.1,0,0,1-.039,1.27q-.059.605-.059,1.191,1.719-.391,2.734-.527a12.628,12.628,0,0,0,2.031-.449l.82-1.055a1.375,1.375,0,0,1,.547-.312,1.614,1.614,0,0,1,1.328,1.172,1.4,1.4,0,0,1-.352,1.328q-.937,1.016-1.8,2.109-1.211,1.8-1.973,3.027t-1.035,1.777q2.539-.586,4.961-1.133.938,1.25-.078,2.109a61.087,61.087,0,0,0-6.992,2.3A4.213,4.213,0,0,0,131-13.34q-.371.723-.918,1.777,1.523-.586,3.789-1.328a1.8,1.8,0,0,1,2.031.469,1.88,1.88,0,0,1,.508,1.25,1.719,1.719,0,0,1-.156.7,6.867,6.867,0,0,1-1.113,2.539,3.335,3.335,0,0,0-.762,1.367q.352.313.82.7,1.523-.469,2.93-.9a1.422,1.422,0,0,1,1,.566q.371.488.039.82a5.394,5.394,0,0,1-.723.605l-2.07.938q.039,1.328.117,2.324a8.049,8.049,0,0,1-.566,2.91,17.083,17.083,0,0,1-1.66,3.555,2.383,2.383,0,0,1-1.055.977,1.58,1.58,0,0,1-1.328.039,2.213,2.213,0,0,1-1.055-.9,3.078,3.078,0,0,1-.7-2.187l1.016.508q.977.625,1.445-.391A8.964,8.964,0,0,0,134.07-.664a6.519,6.519,0,0,0-.039-1.992q-1.6.625-3.125,1.367T128.758-.156a1.528,1.528,0,0,1-1.719-.117,1.023,1.023,0,0,1-.625-1.289,1.353,1.353,0,0,1,.7-.664q.938-.43,5.469-2.187-.977-.7-1.406-.957t-.2-.918a2.009,2.009,0,0,1,.7-1.367,8.086,8.086,0,0,0,1.367-1.6,6.488,6.488,0,0,0,.7-1.328,3.966,3.966,0,0,0-2.031.859q-.859.7-1.309,1.113t-.723.234q-.273-.176-1.016-.762-.312.625-1.484,2.656-.234.43-.508.9-1.016,1.875-2.578,4.648-.586,1.25-1.055,2.383a.945.945,0,0,1-1.289.742q-.937-.742-.937-1.211a5.3,5.3,0,0,1,.781-1.758q.664-1.211,1.484-2.734a3.15,3.15,0,0,0,.273-.508q1.016-1.875,1.992-3.73t3.281-5.84q-1.367.586-2.3,1.016a15.694,15.694,0,0,0-1.914,1.055,1.5,1.5,0,0,1-1.562-.02,1.573,1.573,0,0,1-.82-1.387,1.426,1.426,0,0,1,.7-.9q2.344-.977,3.457-1.387a5.52,5.52,0,0,0,1.7-.918,17.467,17.467,0,0,0,.8-2.773A16.384,16.384,0,0,0,128.992-22.148Zm1.836,4.648q1.992-2.852,3.867-5.859-1.094.234-3.125.742Q131.141-19.961,130.828-17.5ZM140.906,3.75a1.2,1.2,0,0,1-.312-.645.717.717,0,0,1,.313-.723q1.68-2.031,3.457-4.512a13.5,13.5,0,0,0,2.051-3.535A6.338,6.338,0,0,0,144.969-7.3a2.536,2.536,0,0,1-1.094-1.953,1.106,1.106,0,0,1,.938-.7.765.765,0,0,1,.82.313,4.721,4.721,0,0,1,1.133,1.016,14.27,14.27,0,0,0,1.055,1.172q2.813-4.453,3.5-5.664a16.556,16.556,0,0,0,1.191-2.656q-1.406.547-2.773,1.113t-2.773,1.113q-.937.82-1.621.234t-1.113-.977q-.664,1.758-1.191,3.613a34.951,34.951,0,0,0-.84,3.691,1.658,1.658,0,0,1-1.445.664q-.469-.039-.742-.7a29.908,29.908,0,0,1,.859-4.1q.391-1.484.82-3.086.352-1.289.742-2.656a67.925,67.925,0,0,1,3.047-7.891,1.079,1.079,0,0,1,1.211-.273,2.831,2.831,0,0,1,1.406,1.406,4.624,4.624,0,0,1-.586,1.406q-.43.7-1.367,2.578a21.7,21.7,0,0,0-1.289,3.594,4.635,4.635,0,0,0-.117.508,39.69,39.69,0,0,1,4.082-1.621q2.051-.684,4.277-1.309t4.023-1.016q1.055.547,1.094,1.211a2.1,2.1,0,0,1-.547,1.406q-1.68.273-3.125.469a2.74,2.74,0,0,1,.508,1.27,6.243,6.243,0,0,1-.879,2.031q-.879,1.582-1.855,3.184t-2.539,4.258q2.187,2.617,3.262,3.691T155.418.391a27.244,27.244,0,0,0,2.207,1.992q.625.781.547,1.074t-.508.371a1.462,1.462,0,0,1-.82-.078,9.4,9.4,0,0,1-2.578-1.68q-.977-.937-3.086-2.852a33.34,33.34,0,0,1-2.891-2.852q-.82.977-2.344,3.164t-2.129,2.891a10.692,10.692,0,0,0-.937,1.23.913.913,0,0,1-.918.469A2.28,2.28,0,0,1,140.906,3.75Zm31.031-22.891a23.9,23.9,0,0,0,.137,4.219,7.851,7.851,0,0,0,1.582,3.828,1.243,1.243,0,0,1-1.719.352,4.6,4.6,0,0,1-1.523-1.836,12.262,12.262,0,0,1-.879-4.395q-.215-3.105-.254-5.645a.687.687,0,0,1,.371-.7,1.029,1.029,0,0,1,.9-.059,10.177,10.177,0,0,1,1.23.566,2.838,2.838,0,0,1,.352,1.953,4.478,4.478,0,0,0,1.836-.449,24.061,24.061,0,0,1,3.594-1q2.227-.469,4.531-.859l-.352-1.523a7.666,7.666,0,0,1-.078-1.562q0-1.758-.039-3.437.078-.977.781-.977a1.751,1.751,0,0,1,.469.078A1.86,1.86,0,0,1,184.2-28.75a23.943,23.943,0,0,1,0,2.734,7.443,7.443,0,0,1-.508,2.383q2.656-.313,5.918-.586a40.7,40.7,0,0,1,7.285.117q2.7.391,1.914,2.3a3.5,3.5,0,0,1-.312.625q-1.289,2.109-2.129,3.418A13.156,13.156,0,0,1,195.1-16a2.191,2.191,0,0,1-.937.605,2.265,2.265,0,0,1-1.562-.43q1.055-1.641,1.914-3.125l.313-.547a18.181,18.181,0,0,0,1.016-2.227,3.77,3.77,0,0,0-2.227-.469,55.08,55.08,0,0,0-12.676,1.6,34.791,34.791,0,0,0-6.426,2.031,2.019,2.019,0,0,1-1.25.371A4.2,4.2,0,0,1,171.938-19.141Zm10.43,3.281a1.4,1.4,0,0,1,.625,1.758l-1.914,2.539L179.242-9.1a3.775,3.775,0,0,0,1.406-.391q1.055-.43,2.6-.977a17.1,17.1,0,0,0,2.715-1.211q-.625-1.289-.254-1.8a1.244,1.244,0,0,1,1.309-.352,14.769,14.769,0,0,1,2.422,1.973q1.445,1.387,2.188,2.051a4.236,4.236,0,0,1,.469.859,1.274,1.274,0,0,1-.117,1.172,1.334,1.334,0,0,1-1.094.137,1.905,1.905,0,0,1-.82-.527,13.125,13.125,0,0,1-2.109-2.031q-3.359,1.484-5.82,2.441a23.239,23.239,0,0,1-4.219,1.27,2.483,2.483,0,0,1-1.758-.625,1.949,1.949,0,0,1-.469-1.367,3.228,3.228,0,0,1,.352-.937q1.25-1.68,2.539-3.145a14.443,14.443,0,0,0,1.914-2.637,5.8,5.8,0,0,0-2.383.664,2.027,2.027,0,0,1-1.641-.742q-.781-1.445.859-1.68,1.914-.469,4.336-.977t5.391-1.055a2.076,2.076,0,0,1,2.07.391,1.846,1.846,0,0,1,.273,1.133,1.151,1.151,0,0,1-1.133.7Q185.883-16.289,182.367-15.859Zm.234,17.7a10.018,10.018,0,0,1,.2-2.246,5.764,5.764,0,0,0,.039-2.207q-.859.391-1.934.762a7.475,7.475,0,0,0-1.855.918,1.907,1.907,0,0,1-2.7-.664q-.43-1.484.781-1.719,2.383-.625,3.77-.957t2.285-.645a12.222,12.222,0,0,1,.156-1.66q.117-.645,1.484-.41a4.251,4.251,0,0,1,1.406,1.25q.82-.156,1.758-.43a1.846,1.846,0,0,1,1.484.43q1.133,1.289-.7,1.953a4.216,4.216,0,0,0-1.25.156q-.82.2-1.758.43a18.5,18.5,0,0,0-.781,4.727q1.953-.156,4.238-.371T193.93.9a1.071,1.071,0,0,1,1.328.977,1.174,1.174,0,0,1-.742.781,4.7,4.7,0,0,1-.9.2,68.23,68.23,0,0,0-7.637.918,54.412,54.412,0,0,0-8.145,2.051,1.97,1.97,0,0,1-2.383-1.133.7.7,0,0,1,.234-.859,1.569,1.569,0,0,1,.781-.391q1.8-.469,3.457-.82A15.056,15.056,0,0,0,182.6,1.836ZM219.57-2.187a6.244,6.244,0,0,1-1.23,1.445q-.723.625-1.426,1.172A3.125,3.125,0,0,1,215.7,1a2.016,2.016,0,0,1-1.309-.332A2.344,2.344,0,0,1,213.32-.664a10.645,10.645,0,0,1-.82-4.082,42.363,42.363,0,0,1,.293-6.367,68.023,68.023,0,0,1,1.23-7.4,17.18,17.18,0,0,0,.391-1.992q.117-.742.43-.859a1.452,1.452,0,0,1,.352-.039,2.2,2.2,0,0,1,.508.078,2,2,0,0,1,.977.527,1.183,1.183,0,0,1,.391.977q-.039.566-.039,1-.664,2.578-1.211,5.156a41.374,41.374,0,0,0-.762,5.8,30.768,30.768,0,0,0-.039,4.883,7.878,7.878,0,0,0,.332,1.934,13.172,13.172,0,0,1,2.383-1.6,1.638,1.638,0,0,1,.762-.312.976.976,0,0,1,.664.156A1.044,1.044,0,0,1,219.57-2.187Zm8.164-1.094a2.2,2.2,0,0,1-2.5-.82,2.285,2.285,0,0,1-.156-1.387q.156-.527,1.133-.566A24.041,24.041,0,0,0,230.82-6.5q2.3-.449,4.531-1.035,1.172-.273,1.465.43a1.415,1.415,0,0,1,.137,1.055,1.629,1.629,0,0,1-.9.664,31.9,31.9,0,0,1-3.184.977Q230.43-3.75,227.734-3.281Zm-2.344-9.453a3.008,3.008,0,0,1-.742-.469,4.02,4.02,0,0,1-.586-.645,1.414,1.414,0,0,1-.293-.781,3.114,3.114,0,0,1,.176-1.035q3.75-.7,7.422-1.523,1.016-.117,1.7-.156a2.172,2.172,0,0,1,1.25.293,2.383,2.383,0,0,1,.84,1.621,1.85,1.85,0,0,1-1.055.527,10.26,10.26,0,0,1-1.094.059,12.666,12.666,0,0,0-2.07.313,25.921,25.921,0,0,0-2.734.7Q226.992-13.437,225.391-12.734Zm50.992-2.812a72.316,72.316,0,0,0-.332,7.383A64.9,64.9,0,0,1,274.977,2.93a9.861,9.861,0,0,1-.312.938.908.908,0,0,1-.8.586,3.424,3.424,0,0,1-1.035,0,7.055,7.055,0,0,1-5.156-3.086q.859.078,1.914.273a14.522,14.522,0,0,0,2.109.234A1.724,1.724,0,0,0,272.789.82a50.081,50.081,0,0,0,.84-8.574,53.159,53.159,0,0,0-.059-7.129,21.072,21.072,0,0,0-4.336,1.328,24.438,24.438,0,0,0-4.687,2.344q-.7.547-1.8-.312a3.388,3.388,0,0,1-.312-.352q-.82-1.055.117-1.68a45.282,45.282,0,0,1,7.227-2.93q.742-.234,1.406-.43a39.062,39.062,0,0,1,3.984-.977q2.031-.352,3.32-.586t1.836-.352a2.049,2.049,0,0,1,2.031.82q.117.43.215.723a.986.986,0,0,1-.059.684,1.751,1.751,0,0,1-1.367.625,19.092,19.092,0,0,0-2.441,0A9.543,9.543,0,0,0,276.383-15.547Zm-10.2-4.609a1.933,1.933,0,0,1-1.387-.137,1.346,1.346,0,0,1-.8-1.191,1.244,1.244,0,0,1,.234-1.016,2.553,2.553,0,0,1,1.133-.508q4.3-.9,7.031-1.484t4.023-.937a1.811,1.811,0,0,1,1.875.82q.977,1.562-.586,1.992a5.748,5.748,0,0,1-1.934.293,24.44,24.44,0,0,0-4.375.762Q268.258-20.82,266.188-20.156Zm-6.484-.937a1.368,1.368,0,0,1,1.074.391,3.013,3.013,0,0,1,.527,1.914q-2.461,2.5-4.766,5.039l-.547.625a1.372,1.372,0,0,1,.7.781,4.776,4.776,0,0,1-.273,1.875q-.2.859-.43,2.3-.156,1.055-.352,2.461-.43,3.242-.625,5.1a13.458,13.458,0,0,0,.156,3.809,1.43,1.43,0,0,1-.2.938,1.139,1.139,0,0,1-.937.586,1.5,1.5,0,0,1-1.406-1.562,23.4,23.4,0,0,1,.1-4.375q.254-2.188.645-4.844.078-.352.117-.664.352-2.3.586-4.1-.859,1.094-1.523,2.109-1.68,2.5-2.187,3.4-.156.273-.352.586-.312.625-.664,1.367a2.579,2.579,0,0,1-1.367-.2l-.2-.078q-.664-.352-.273-1.367a15.124,15.124,0,0,1,1.016-1.895q.7-1.152,2.383-3.5t3.594-4.746q1.914-2.4,3.359-4.1A8.947,8.947,0,0,1,259.7-21.094Zm-4.8-4.922a2.553,2.553,0,0,1,1.406,2.031q-2.031,2.383-4.3,5.332a27.874,27.874,0,0,0-3.672,6.348,4.5,4.5,0,0,1-1.191-.234.98.98,0,0,1-.684-.781,1.584,1.584,0,0,1,.156-1.094,28.006,28.006,0,0,1,2.7-4.687q1.914-2.812,4.727-6.641a.933.933,0,0,1,.664-.312A.643.643,0,0,1,254.9-26.016Zm44.391,9.609a1.826,1.826,0,0,1-1.895-.078,2.837,2.837,0,0,1-.879-1.211,1.974,1.974,0,0,1-.137-1.074q.1-.41.684-.566h1.172a33.462,33.462,0,0,1,6.289.469,14.175,14.175,0,0,1,3.359.938,2.818,2.818,0,0,1,1.074,1,1.926,1.926,0,0,1,.391,1.016,1.192,1.192,0,0,1-.215.645q-.2.273-.859.2-.9-.234-2.207-.645a17.6,17.6,0,0,0-3.32-.625A16.47,16.47,0,0,0,299.289-16.406ZM297.531-.781a2.661,2.661,0,0,1-1.387-1.23,2.033,2.033,0,0,1-.332-1.465q.156-.586,1.172-.43a26.771,26.771,0,0,0,5.723.352,23.957,23.957,0,0,0,4.844-.566l2.578-.664q.84-.215,1.309-.293a1.042,1.042,0,0,1,.313,1.016,2.422,2.422,0,0,1-.508.859,4.394,4.394,0,0,1-1.191.9,14.008,14.008,0,0,1-3.2,1.094,21.653,21.653,0,0,1-4.531.664A30.846,30.846,0,0,1,297.531-.781Zm33.375-10.9a7.662,7.662,0,0,1-1.191-.371,1.081,1.081,0,0,1-.742-.859,1.711,1.711,0,0,1,.215-1.152,12.635,12.635,0,0,1,2.871-2.7,12.368,12.368,0,0,1,3.242-1.66,9.849,9.849,0,0,1,3.223-.449,5.926,5.926,0,0,1,3.184,1.23,4.65,4.65,0,0,1,1.738,2.91,12.157,12.157,0,0,1,.039,3.77,20.833,20.833,0,0,1-1.543,4.98A44.852,44.852,0,0,1,339.09-.332,23.414,23.414,0,0,1,336.8,3.047q-.7.742-1.484,1.523a1.544,1.544,0,0,1-1.074.43,1.231,1.231,0,0,1-1.035-.664,1.025,1.025,0,0,1,.117-1.367,44.147,44.147,0,0,0,4.2-5.918,36.672,36.672,0,0,0,3.184-7.949,13.889,13.889,0,0,0,.508-3.086,1.43,1.43,0,0,0-.391-1.523,3.215,3.215,0,0,0-1.953-.625,8.339,8.339,0,0,0-2.812.352,9.045,9.045,0,0,0-3.027,1.641A7.1,7.1,0,0,0,330.906-11.68Zm4.57-8.789a34.291,34.291,0,0,0,.566-4.082,8.869,8.869,0,0,0-.762-4.316q-.078-.977.586-1.211a1.475,1.475,0,0,1,.469-.078.749.749,0,0,1,.547.234,7.82,7.82,0,0,1,.957,1.719,7.076,7.076,0,0,1,.605,2.969,11.026,11.026,0,0,1-.371,2.969,16.967,16.967,0,0,1-.605,1.875,1.489,1.489,0,0,1-.449.625q-.293.234-.879-.039T335.477-20.469Zm34.078-4.3a52.23,52.23,0,0,0-2.031,8.652q-1.211,6.7-.586,10.332a1.728,1.728,0,0,1-.078.918q-.156.371-.937.449a1.372,1.372,0,0,1-.84-.605,4.844,4.844,0,0,1-.293-.8,21.5,21.5,0,0,1-.215-5.645q.254-3.105.742-6.895t1.074-7.539q.234-1.172.977-1.172a2.229,2.229,0,0,1,1.367.469,3.149,3.149,0,0,1,.859.879A.972.972,0,0,1,369.555-24.766ZM367.992,4.3q-.508.117-.859.234a.894.894,0,0,1-.723-.078,1.134,1.134,0,0,1-.527-.742,5.015,5.015,0,0,1-.9-3.242.95.95,0,0,1,1.133-1.016A1.809,1.809,0,0,1,367.68.977Q367.953,3.164,367.992,4.3Z" transform="matrix(0.966, -0.259, 0.259, 0.966, 6.245, 125.305)" fill="#fff"/>
</svg>
