<svg xmlns="http://www.w3.org/2000/svg" width="46.339" height="537.061" viewBox="0 0 46.339 537.061">
  <path id="パス_79" data-name="パス 79" d="M23.46-35.19v24.225L8.976-35.19h-5.1V0H9.588V-23.919L23.919,0h5.253V-35.19ZM59.109-14.382c0-7.5-3.927-11.577-10.812-11.577s-10.863,4.08-10.863,11.577v3.213C37.434-4.131,41.157.459,48.3.459c7.5,0,10.812-4.845,10.812-11.628ZM48.3-4.233c-4.131,0-5.457-3.111-5.457-7.089V-14.28c0-4.386,1.785-6.936,5.457-6.936,3.621,0,5.406,2.5,5.406,6.936v2.958C53.7-7.344,52.173-4.233,48.3-4.233Zm24.888-2.8H66.147V0h7.038ZM96.135-35.19H90.576L85.17-31.314v5.967l5.049-3.468V0h5.916Zm55.539,10.914c-1.173-7.65-5.814-11.373-12.8-11.373-7.854,0-13.158,4.743-13.158,15.81v4.488c0,11.067,5.3,15.81,13.158,15.81,6.987,0,11.577-3.468,12.75-11.373h-5.661c-.918,4.284-3.06,6.222-7.089,6.222-4.692,0-7.242-3.162-7.242-10.659v-4.488c0-7.6,2.55-10.659,7.242-10.659,3.876,0,6.171,1.938,7.089,6.222Zm27.591,9.894c0-7.5-3.927-11.577-10.812-11.577s-10.863,4.08-10.863,11.577v3.213c0,7.038,3.723,11.628,10.863,11.628,7.5,0,10.812-4.845,10.812-11.628ZM168.453-4.233c-4.131,0-5.457-3.111-5.457-7.089V-14.28c0-4.386,1.785-6.936,5.457-6.936,3.621,0,5.406,2.5,5.406,6.936v2.958C173.859-7.344,172.329-4.233,168.453-4.233Zm36.261-17.493c-1.989-3.162-5.3-4.233-9.486-4.233-6.222,0-9.537,3.06-9.537,7.6,0,5.355,4.08,7.4,8.925,8.007,3.978.51,5.3,1.122,5.3,3.213,0,1.785-1.632,2.8-4.437,2.8-3.366,0-4.9-.816-6.069-2.4l-4.131,2.958C187.374-.969,190.332.459,195.534.459c6.579,0,9.792-3.06,9.792-7.752,0-5.406-3.672-7.395-9.333-8.058-2.958-.357-4.845-1.02-4.845-3.162,0-1.836,1.683-2.6,3.978-2.6,3.06,0,4.335.714,5.559,2.3Zm6.069.918h3.264v12.7C214.047-2.091,216.24,0,222.36,0h2.5V-4.9h-2.091c-2.856,0-3.315-1.275-3.315-4.233V-20.808h5.406V-25.5h-5.406v-5.61h-5.406v5.61h-3.264Zm58.089,6.273c0-7.293-3.876-11.424-10-11.424-2.907,0-4.947.918-6.222,2.5V-25.5H247.2V9.69h5.457V-1.632c1.275,1.377,3.213,2.091,6.171,2.091,6.783,0,10.047-4.9,10.047-11.526ZM258.06-4.233c-4.131,0-5.406-3.111-5.406-7.089v-3.264c.051-4.182,1.836-6.63,5.406-6.63,3.621,0,5.406,2.5,5.406,6.936v2.958C263.466-7.344,261.936-4.233,258.06-4.233Zm33.3-2.5c-1.02,1.581-2.244,2.5-5.253,2.5-4.029,0-5.559-3.111-5.559-7.089v-.1H295.8v-2.805c0-7.548-3.315-11.73-10.3-11.73-6.681,0-10.353,3.927-10.353,11.424v3.468c0,6.783,3.876,11.526,11.169,11.526,4.488,0,7.344-1.224,9.129-4.335ZM285.5-21.216c3.111,0,4.641,1.887,4.845,5.61H280.6C280.857-19.074,282.336-21.216,285.5-21.216Zm36.261-.969a7.731,7.731,0,0,0-7.089-3.774,6.354,6.354,0,0,0-5.712,2.754v-2.3H303.6V0h5.457V-15.4c0-3.672,1.938-5.712,4.692-5.712a4.227,4.227,0,0,1,3.672,1.989Zm2.907-3.315v4.692h3.264V0h5.406V-20.808h4.488V-25.5h-4.488v-.561c0-2.958.459-4.233,3.315-4.233h1.173v-4.9h-1.581c-6.12,0-8.313,2.091-8.313,8.109V-25.5Zm40.188,11.118c0-7.5-3.927-11.577-10.812-11.577s-10.863,4.08-10.863,11.577v3.213c0,7.038,3.723,11.628,10.863,11.628,7.5,0,10.812-4.845,10.812-11.628ZM354.042-4.233c-4.131,0-5.457-3.111-5.457-7.089V-14.28c0-4.386,1.785-6.936,5.457-6.936,3.621,0,5.406,2.5,5.406,6.936v2.958C359.448-7.344,357.918-4.233,354.042-4.233ZM390.3-22.185a7.731,7.731,0,0,0-7.089-3.774A6.354,6.354,0,0,0,377.5-23.2v-2.3h-5.355V0H377.6V-15.4c0-3.672,1.938-5.712,4.692-5.712a4.227,4.227,0,0,1,3.672,1.989ZM395.25,0h5.457V-15.4c0-3.57,1.989-5.712,4.794-5.712,2.6,0,4.488,1.428,4.488,5.763V0h5.406V-15.657c.1-3.417,2.04-5.457,4.743-5.457,2.8,0,4.539,1.581,4.539,5.763V0h5.457V-15.963c0-6.63-3.315-10-8.823-10a8.973,8.973,0,0,0-7.446,3.672,8.2,8.2,0,0,0-7.293-3.672c-3.009,0-4.947,1.224-5.967,2.754v-2.3H395.25Zm41.973-7.5c0,5.1,3.468,7.956,9.078,7.956,3.111,0,4.692-.816,5.916-2.8V0h5.355V-17.136c0-6.783-3.519-8.823-10.047-8.823-5.049,0-7.8,1.224-9.639,4.233l3.927,2.754c1.224-1.989,2.6-2.3,5.355-2.3,3.825,0,5.049.867,5.049,4.08v2.142h-5.508C441.252-15.045,437.223-12.954,437.223-7.5Zm14.994-2.142c0,4.437-1.989,5.457-5.3,5.457-2.6,0-4.335-.969-4.335-3.315,0-2.244,1.326-3.366,4.539-3.366h5.1ZM465.936,0h5.457V-15.4c0-3.417,1.887-5.712,5.253-5.712,2.8,0,4.845,1.275,4.845,5.763V0H486.9V-15.963c0-7.344-4.029-10-9.282-10-3.366,0-5.2,1.224-6.324,2.754v-2.3h-5.355Zm44.472-6.732a5.151,5.151,0,0,1-4.845,2.5c-4.488,0-5.916-3.111-5.916-7.089V-14.28c0-4.386,1.938-6.936,5.916-6.936a5.626,5.626,0,0,1,4.794,2.3l4.182-2.907c-1.785-2.7-5-4.131-8.874-4.131-7.293,0-11.424,4.08-11.424,11.424v3.468c0,6.936,4.08,11.526,11.22,11.526,4.386,0,7.4-1.326,9.078-4.335Zm25.092,0c-1.02,1.581-2.244,2.5-5.253,2.5-4.029,0-5.559-3.111-5.559-7.089v-.1h15.249v-2.805c0-7.548-3.315-11.73-10.3-11.73-6.681,0-10.353,3.927-10.353,11.424v3.468c0,6.783,3.876,11.526,11.169,11.526,4.488,0,7.344-1.224,9.129-4.335Zm-5.865-14.484c3.111,0,4.641,1.887,4.845,5.61h-9.741C524.994-19.074,526.473-21.216,529.635-21.216Z" transform="translate(10.19 -3.376) rotate(90)" fill="none" stroke="#000" stroke-width="1"/>
</svg>
